<svg width="480" height="480" viewBox="0 0 480 480" fill="none" xmlns="http://www.w3.org/2000/svg">
<g clip-path="url(#clip0_20_110)">
<path fill-rule="evenodd" clip-rule="evenodd" d="M62.3005 118C64.1205 120.24 65.1005 123.04 65.1005 126.12C65.1005 129.2 63.9805 132.14 62.1605 134.38L62.0205 134.52V134.24C62.0205 134.1 61.8805 133.82 61.8805 133.54C60.9005 129.48 57.9605 126.12 53.0605 123.32C49.7005 121.5 47.8805 119.12 47.3205 116.6C47.0405 114.92 47.1805 113.24 47.7405 111.84C48.1605 110.44 48.8605 109.18 49.4205 108.48L51.3805 106.1C51.6605 105.68 52.3605 105.68 52.6405 106.1L62.3005 118ZM65.3805 115.62L52.5005 100.08C52.2205 99.7996 51.8005 99.7996 51.5205 100.08L38.7805 115.62C36.4005 118.56 35.0005 122.34 35.0005 126.4C35.0005 135.78 42.7005 143.48 52.0805 143.48C61.4605 143.48 69.1605 135.92 69.1605 126.4C69.1605 122.34 67.7605 118.56 65.3805 115.62ZM41.8605 118L42.9805 116.6V116.88C42.9805 117.02 42.9805 117.3 43.1205 117.44C43.8205 121.36 46.4805 124.58 50.9605 127.1C54.7405 129.34 56.9805 131.86 57.6805 134.52C57.9605 135.64 57.9605 136.76 57.8205 137.74C56.1405 138.58 54.1805 139 52.0805 139C44.8005 139 39.0605 133.12 39.0605 125.98C38.9205 123.04 40.0405 120.24 41.8605 118Z" fill="white" fill-opacity="0.1"/>
</g>
<g clip-path="url(#clip1_20_110)">
<path fill-rule="evenodd" clip-rule="evenodd" d="M62.3005 38.1998C64.1205 40.4398 65.1005 43.2398 65.1005 46.3198C65.1005 49.3998 63.9805 52.3398 62.1605 54.5798L62.0205 54.7198V54.4398C62.0205 54.2998 61.8805 54.0198 61.8805 53.7398C60.9005 49.6798 57.9605 46.3198 53.0605 43.5198C49.7005 41.6998 47.8805 39.3198 47.3205 36.7998C47.0405 35.1198 47.1805 33.4398 47.7405 32.0398C48.1605 30.6398 48.8605 29.3798 49.4205 28.6798L51.3805 26.2998C51.6605 25.8798 52.3605 25.8798 52.6405 26.2998L62.3005 38.1998ZM65.3805 35.8198L52.5005 20.2798C52.2205 19.9998 51.8005 19.9998 51.5205 20.2798L38.7805 35.8198C36.4005 38.7598 35.0005 42.5398 35.0005 46.5998C35.0005 55.9798 42.7005 63.6798 52.0805 63.6798C61.4605 63.6798 69.1605 56.1198 69.1605 46.5998C69.1605 42.5398 67.7605 38.7598 65.3805 35.8198ZM41.8605 38.1998L42.9805 36.7998V37.0798C42.9805 37.2198 42.9805 37.4998 43.1205 37.6398C43.8205 41.5598 46.4805 44.7798 50.9605 47.2998C54.7405 49.5398 56.9805 52.0598 57.6805 54.7198C57.9605 55.8398 57.9605 56.9598 57.8205 57.9398C56.1405 58.7798 54.1805 59.1998 52.0805 59.1998C44.8005 59.1998 39.0605 53.3198 39.0605 46.1798C38.9205 43.2398 40.0405 40.4398 41.8605 38.1998Z" fill="white" fill-opacity="0.1"/>
</g>
<g clip-path="url(#clip2_20_110)">
<path fill-rule="evenodd" clip-rule="evenodd" d="M62.3005 197.799C64.1205 200.039 65.1005 202.839 65.1005 205.919C65.1005 208.999 63.9805 211.939 62.1605 214.179L62.0205 214.319V214.039C62.0205 213.899 61.8805 213.619 61.8805 213.339C60.9005 209.279 57.9605 205.919 53.0605 203.119C49.7005 201.299 47.8805 198.919 47.3205 196.399C47.0405 194.719 47.1805 193.039 47.7405 191.639C48.1605 190.239 48.8605 188.979 49.4205 188.279L51.3805 185.899C51.6605 185.479 52.3605 185.479 52.6405 185.899L62.3005 197.799ZM65.3805 195.419L52.5005 179.879C52.2205 179.599 51.8005 179.599 51.5205 179.879L38.7805 195.419C36.4005 198.359 35.0005 202.139 35.0005 206.199C35.0005 215.579 42.7005 223.279 52.0805 223.279C61.4605 223.279 69.1605 215.719 69.1605 206.199C69.1605 202.139 67.7605 198.359 65.3805 195.419ZM41.8605 197.799L42.9805 196.399V196.679C42.9805 196.819 42.9805 197.099 43.1205 197.239C43.8205 201.159 46.4805 204.379 50.9605 206.899C54.7405 209.139 56.9805 211.659 57.6805 214.319C57.9605 215.439 57.9605 216.559 57.8205 217.539C56.1405 218.379 54.1805 218.799 52.0805 218.799C44.8005 218.799 39.0605 212.919 39.0605 205.779C38.9205 202.839 40.0405 200.039 41.8605 197.799Z" fill="white" fill-opacity="0.1"/>
</g>
<g clip-path="url(#clip3_20_110)">
<path fill-rule="evenodd" clip-rule="evenodd" d="M62.3005 277.6C64.1205 279.84 65.1005 282.64 65.1005 285.72C65.1005 288.8 63.9805 291.74 62.1605 293.98L62.0205 294.12V293.84C62.0205 293.7 61.8805 293.42 61.8805 293.14C60.9005 289.08 57.9605 285.72 53.0605 282.92C49.7005 281.1 47.8805 278.72 47.3205 276.2C47.0405 274.52 47.1805 272.84 47.7405 271.44C48.1605 270.04 48.8605 268.78 49.4205 268.08L51.3805 265.7C51.6605 265.28 52.3605 265.28 52.6405 265.7L62.3005 277.6ZM65.3805 275.22L52.5005 259.68C52.2205 259.4 51.8005 259.4 51.5205 259.68L38.7805 275.22C36.4005 278.16 35.0005 281.94 35.0005 286C35.0005 295.38 42.7005 303.08 52.0805 303.08C61.4605 303.08 69.1605 295.52 69.1605 286C69.1605 281.94 67.7605 278.16 65.3805 275.22ZM41.8605 277.6L42.9805 276.2V276.48C42.9805 276.62 42.9805 276.9 43.1205 277.04C43.8205 280.96 46.4805 284.18 50.9605 286.7C54.7405 288.94 56.9805 291.46 57.6805 294.12C57.9605 295.24 57.9605 296.36 57.8205 297.34C56.1405 298.18 54.1805 298.6 52.0805 298.6C44.8005 298.6 39.0605 292.72 39.0605 285.58C38.9205 282.64 40.0405 279.84 41.8605 277.6Z" fill="white" fill-opacity="0.1"/>
</g>
<g clip-path="url(#clip4_20_110)">
<path fill-rule="evenodd" clip-rule="evenodd" d="M125.3 234.2C127.12 236.44 128.1 239.24 128.1 242.32C128.1 245.4 126.98 248.34 125.16 250.58L125.02 250.72V250.44C125.02 250.3 124.88 250.02 124.88 249.74C123.9 245.68 120.96 242.32 116.06 239.52C112.7 237.7 110.88 235.32 110.32 232.8C110.04 231.12 110.18 229.44 110.74 228.04C111.16 226.64 111.86 225.38 112.42 224.68L114.38 222.3C114.66 221.88 115.36 221.88 115.64 222.3L125.3 234.2ZM128.38 231.82L115.5 216.28C115.22 216 114.8 216 114.52 216.28L101.78 231.82C99.4005 234.76 98.0005 238.54 98.0005 242.6C98.0005 251.98 105.7 259.68 115.08 259.68C124.46 259.68 132.16 252.12 132.16 242.6C132.16 238.54 130.76 234.76 128.38 231.82ZM104.86 234.2L105.98 232.8V233.08C105.98 233.22 105.98 233.5 106.12 233.64C106.82 237.56 109.48 240.78 113.96 243.3C117.74 245.54 119.98 248.06 120.68 250.72C120.96 251.84 120.96 252.96 120.82 253.94C119.14 254.78 117.18 255.2 115.08 255.2C107.8 255.2 102.06 249.32 102.06 242.18C101.92 239.24 103.04 236.44 104.86 234.2Z" fill="white" fill-opacity="0.1"/>
</g>
<g clip-path="url(#clip5_20_110)">
<path fill-rule="evenodd" clip-rule="evenodd" d="M125.3 154.4C127.12 156.64 128.1 159.44 128.1 162.52C128.1 165.6 126.98 168.54 125.16 170.78L125.02 170.92V170.64C125.02 170.5 124.88 170.22 124.88 169.94C123.9 165.88 120.96 162.52 116.06 159.72C112.7 157.9 110.88 155.52 110.32 153C110.04 151.32 110.18 149.64 110.74 148.24C111.16 146.84 111.86 145.58 112.42 144.88L114.38 142.5C114.66 142.08 115.36 142.08 115.64 142.5L125.3 154.4ZM128.38 152.02L115.5 136.48C115.22 136.2 114.8 136.2 114.52 136.48L101.78 152.02C99.4005 154.96 98.0005 158.74 98.0005 162.8C98.0005 172.18 105.7 179.88 115.08 179.88C124.46 179.88 132.16 172.32 132.16 162.8C132.16 158.74 130.76 154.96 128.38 152.02ZM104.86 154.4L105.98 153V153.28C105.98 153.42 105.98 153.7 106.12 153.84C106.82 157.76 109.48 160.98 113.96 163.5C117.74 165.74 119.98 168.26 120.68 170.92C120.96 172.04 120.96 173.16 120.82 174.14C119.14 174.98 117.18 175.4 115.08 175.4C107.8 175.4 102.06 169.52 102.06 162.38C101.92 159.44 103.04 156.64 104.86 154.4Z" fill="white" fill-opacity="0.1"/>
</g>
<g clip-path="url(#clip6_20_110)">
<path fill-rule="evenodd" clip-rule="evenodd" d="M125.3 73.8995C127.12 76.1395 128.1 78.9395 128.1 82.0195C128.1 85.0995 126.98 88.0395 125.16 90.2795L125.02 90.4195V90.1395C125.02 89.9995 124.88 89.7195 124.88 89.4395C123.9 85.3795 120.96 82.0195 116.06 79.2195C112.7 77.3995 110.88 75.0195 110.32 72.4995C110.04 70.8195 110.18 69.1395 110.74 67.7395C111.16 66.3395 111.86 65.0795 112.42 64.3795L114.38 61.9995C114.66 61.5795 115.36 61.5795 115.64 61.9995L125.3 73.8995ZM128.38 71.5195L115.5 55.9795C115.22 55.6995 114.8 55.6995 114.52 55.9795L101.78 71.5195C99.4005 74.4595 98.0005 78.2395 98.0005 82.2995C98.0005 91.6795 105.7 99.3795 115.08 99.3795C124.46 99.3795 132.16 91.8195 132.16 82.2995C132.16 78.2395 130.76 74.4595 128.38 71.5195ZM104.86 73.8995L105.98 72.4995V72.7795C105.98 72.9195 105.98 73.1995 106.12 73.3395C106.82 77.2595 109.48 80.4795 113.96 82.9995C117.74 85.2395 119.98 87.7595 120.68 90.4195C120.96 91.5395 120.96 92.6595 120.82 93.6395C119.14 94.4795 117.18 94.8995 115.08 94.8995C107.8 94.8995 102.06 89.0195 102.06 81.8795C101.92 78.9395 103.04 76.1395 104.86 73.8995Z" fill="white" fill-opacity="0.1"/>
</g>
<g clip-path="url(#clip7_20_110)">
<path fill-rule="evenodd" clip-rule="evenodd" d="M186.2 118C188.02 120.24 189 123.04 189 126.12C189 129.2 187.88 132.14 186.06 134.38L185.92 134.52V134.24C185.92 134.1 185.78 133.82 185.78 133.54C184.8 129.48 181.86 126.12 176.96 123.32C173.6 121.5 171.78 119.12 171.22 116.6C170.94 114.92 171.08 113.24 171.64 111.84C172.06 110.44 172.76 109.18 173.32 108.48L175.28 106.1C175.56 105.68 176.26 105.68 176.54 106.1L186.2 118ZM189.28 115.62L176.4 100.08C176.12 99.7996 175.7 99.7996 175.42 100.08L162.68 115.62C160.3 118.56 158.9 122.34 158.9 126.4C158.9 135.78 166.6 143.48 175.98 143.48C185.36 143.48 193.06 135.92 193.06 126.4C193.06 122.34 191.66 118.56 189.28 115.62ZM165.76 118L166.88 116.6V116.88C166.88 117.02 166.88 117.3 167.02 117.44C167.72 121.36 170.38 124.58 174.86 127.1C178.64 129.34 180.88 131.86 181.58 134.52C181.86 135.64 181.86 136.76 181.72 137.74C180.04 138.58 178.08 139 175.98 139C168.7 139 162.96 133.12 162.96 125.98C162.82 123.04 163.94 120.24 165.76 118Z" fill="white" fill-opacity="0.1"/>
</g>
<g clip-path="url(#clip8_20_110)">
<path fill-rule="evenodd" clip-rule="evenodd" d="M186.2 38.1998C188.02 40.4398 189 43.2398 189 46.3198C189 49.3998 187.88 52.3398 186.06 54.5798L185.92 54.7198V54.4398C185.92 54.2998 185.78 54.0198 185.78 53.7398C184.8 49.6798 181.86 46.3198 176.96 43.5198C173.6 41.6998 171.78 39.3198 171.22 36.7998C170.94 35.1198 171.08 33.4398 171.64 32.0398C172.06 30.6398 172.76 29.3798 173.32 28.6798L175.28 26.2998C175.56 25.8798 176.26 25.8798 176.54 26.2998L186.2 38.1998ZM189.28 35.8198L176.4 20.2798C176.12 19.9998 175.7 19.9998 175.42 20.2798L162.68 35.8198C160.3 38.7598 158.9 42.5398 158.9 46.5998C158.9 55.9798 166.6 63.6798 175.98 63.6798C185.36 63.6798 193.06 56.1198 193.06 46.5998C193.06 42.5398 191.66 38.7598 189.28 35.8198ZM165.76 38.1998L166.88 36.7998V37.0798C166.88 37.2198 166.88 37.4998 167.02 37.6398C167.72 41.5598 170.38 44.7798 174.86 47.2998C178.64 49.5398 180.88 52.0598 181.58 54.7198C181.86 55.8398 181.86 56.9598 181.72 57.9398C180.04 58.7798 178.08 59.1998 175.98 59.1998C168.7 59.1998 162.96 53.3198 162.96 46.1798C162.82 43.2398 163.94 40.4398 165.76 38.1998Z" fill="white" fill-opacity="0.1"/>
</g>
<g clip-path="url(#clip9_20_110)">
<path fill-rule="evenodd" clip-rule="evenodd" d="M186.2 197.799C188.02 200.039 189 202.839 189 205.919C189 208.999 187.88 211.939 186.06 214.179L185.92 214.319V214.039C185.92 213.899 185.78 213.619 185.78 213.339C184.8 209.279 181.86 205.919 176.96 203.119C173.6 201.299 171.78 198.919 171.22 196.399C170.94 194.719 171.08 193.039 171.64 191.639C172.06 190.239 172.76 188.979 173.32 188.279L175.28 185.899C175.56 185.479 176.26 185.479 176.54 185.899L186.2 197.799ZM189.28 195.419L176.4 179.879C176.12 179.599 175.7 179.599 175.42 179.879L162.68 195.419C160.3 198.359 158.9 202.139 158.9 206.199C158.9 215.579 166.6 223.279 175.98 223.279C185.36 223.279 193.06 215.719 193.06 206.199C193.06 202.139 191.66 198.359 189.28 195.419ZM165.76 197.799L166.88 196.399V196.679C166.88 196.819 166.88 197.099 167.02 197.239C167.72 201.159 170.38 204.379 174.86 206.899C178.64 209.139 180.88 211.659 181.58 214.319C181.86 215.439 181.86 216.559 181.72 217.539C180.04 218.379 178.08 218.799 175.98 218.799C168.7 218.799 162.96 212.919 162.96 205.779C162.82 202.839 163.94 200.039 165.76 197.799Z" fill="white" fill-opacity="0.1"/>
</g>
<g clip-path="url(#clip10_20_110)">
<path fill-rule="evenodd" clip-rule="evenodd" d="M253.401 234.2C255.221 236.44 256.201 239.24 256.201 242.32C256.201 245.4 255.081 248.34 253.261 250.58L253.121 250.72V250.44C253.121 250.3 252.981 250.02 252.981 249.74C252.001 245.68 249.061 242.32 244.161 239.52C240.801 237.7 238.981 235.32 238.421 232.8C238.141 231.12 238.281 229.44 238.841 228.04C239.261 226.64 239.961 225.38 240.521 224.68L242.481 222.3C242.761 221.88 243.461 221.88 243.741 222.3L253.401 234.2ZM256.481 231.82L243.601 216.28C243.321 216 242.901 216 242.621 216.28L229.881 231.82C227.501 234.76 226.101 238.54 226.101 242.6C226.101 251.98 233.801 259.68 243.181 259.68C252.561 259.68 260.261 252.12 260.261 242.6C260.261 238.54 258.861 234.76 256.481 231.82ZM232.961 234.2L234.081 232.8V233.08C234.081 233.22 234.081 233.5 234.221 233.64C234.921 237.56 237.581 240.78 242.061 243.3C245.841 245.54 248.081 248.06 248.781 250.72C249.061 251.84 249.061 252.96 248.921 253.94C247.241 254.78 245.281 255.2 243.181 255.2C235.901 255.2 230.161 249.32 230.161 242.18C230.021 239.24 231.141 236.44 232.961 234.2Z" fill="white" fill-opacity="0.1"/>
</g>
<g clip-path="url(#clip11_20_110)">
<path fill-rule="evenodd" clip-rule="evenodd" d="M186.2 277.6C188.02 279.84 189 282.64 189 285.72C189 288.8 187.88 291.74 186.06 293.98L185.92 294.12V293.84C185.92 293.7 185.78 293.42 185.78 293.14C184.8 289.08 181.86 285.72 176.96 282.92C173.6 281.1 171.78 278.72 171.22 276.2C170.94 274.52 171.08 272.84 171.64 271.44C172.06 270.04 172.76 268.78 173.32 268.08L175.28 265.7C175.56 265.28 176.26 265.28 176.54 265.7L186.2 277.6ZM189.28 275.22L176.4 259.68C176.12 259.4 175.7 259.4 175.42 259.68L162.68 275.22C160.3 278.16 158.9 281.94 158.9 286C158.9 295.38 166.6 303.08 175.98 303.08C185.36 303.08 193.06 295.52 193.06 286C193.06 281.94 191.66 278.16 189.28 275.22ZM165.76 277.6L166.88 276.2V276.48C166.88 276.62 166.88 276.9 167.02 277.04C167.72 280.96 170.38 284.18 174.86 286.7C178.64 288.94 180.88 291.46 181.58 294.12C181.86 295.24 181.86 296.36 181.72 297.34C180.04 298.18 178.08 298.6 175.98 298.6C168.7 298.6 162.96 292.72 162.96 285.58C162.82 282.64 163.94 279.84 165.76 277.6Z" fill="white" fill-opacity="0.1"/>
</g>
<g clip-path="url(#clip12_20_110)">
<path fill-rule="evenodd" clip-rule="evenodd" d="M314.3 118C316.12 120.24 317.1 123.04 317.1 126.12C317.1 129.2 315.98 132.14 314.16 134.38L314.02 134.52V134.24C314.02 134.1 313.88 133.82 313.88 133.54C312.9 129.48 309.96 126.12 305.06 123.32C301.7 121.5 299.88 119.12 299.32 116.6C299.04 114.92 299.18 113.24 299.74 111.84C300.16 110.44 300.86 109.18 301.42 108.48L303.38 106.1C303.66 105.68 304.36 105.68 304.64 106.1L314.3 118ZM317.38 115.62L304.5 100.08C304.22 99.7996 303.8 99.7996 303.52 100.08L290.78 115.62C288.4 118.56 287 122.34 287 126.4C287 135.78 294.7 143.48 304.08 143.48C313.46 143.48 321.16 135.92 321.16 126.4C321.16 122.34 319.76 118.56 317.38 115.62ZM293.86 118L294.98 116.6V116.88C294.98 117.02 294.98 117.3 295.12 117.44C295.82 121.36 298.48 124.58 302.96 127.1C306.74 129.34 308.98 131.86 309.68 134.52C309.96 135.64 309.96 136.76 309.82 137.74C308.14 138.58 306.18 139 304.08 139C296.8 139 291.06 133.12 291.06 125.98C290.92 123.04 292.04 120.24 293.86 118Z" fill="white" fill-opacity="0.1"/>
</g>
<g clip-path="url(#clip13_20_110)">
<path fill-rule="evenodd" clip-rule="evenodd" d="M314.3 38.1998C316.12 40.4398 317.1 43.2398 317.1 46.3198C317.1 49.3998 315.98 52.3398 314.16 54.5798L314.02 54.7198V54.4398C314.02 54.2998 313.88 54.0198 313.88 53.7398C312.9 49.6798 309.96 46.3198 305.06 43.5198C301.7 41.6998 299.88 39.3198 299.32 36.7998C299.04 35.1198 299.18 33.4398 299.74 32.0398C300.16 30.6398 300.86 29.3798 301.42 28.6798L303.38 26.2998C303.66 25.8798 304.36 25.8798 304.64 26.2998L314.3 38.1998ZM317.38 35.8198L304.5 20.2798C304.22 19.9998 303.8 19.9998 303.52 20.2798L290.78 35.8198C288.4 38.7598 287 42.5398 287 46.5998C287 55.9798 294.7 63.6798 304.08 63.6798C313.46 63.6798 321.16 56.1198 321.16 46.5998C321.16 42.5398 319.76 38.7598 317.38 35.8198ZM293.86 38.1998L294.98 36.7998V37.0798C294.98 37.2198 294.98 37.4998 295.12 37.6398C295.82 41.5598 298.48 44.7798 302.96 47.2998C306.74 49.5398 308.98 52.0598 309.68 54.7198C309.96 55.8398 309.96 56.9598 309.82 57.9398C308.14 58.7798 306.18 59.1998 304.08 59.1998C296.8 59.1998 291.06 53.3198 291.06 46.1798C290.92 43.2398 292.04 40.4398 293.86 38.1998Z" fill="white" fill-opacity="0.1"/>
</g>
<g clip-path="url(#clip14_20_110)">
<path fill-rule="evenodd" clip-rule="evenodd" d="M314.3 197.799C316.12 200.039 317.1 202.839 317.1 205.919C317.1 208.999 315.98 211.939 314.16 214.179L314.02 214.319V214.039C314.02 213.899 313.88 213.619 313.88 213.339C312.9 209.279 309.96 205.919 305.06 203.119C301.7 201.299 299.88 198.919 299.32 196.399C299.04 194.719 299.18 193.039 299.74 191.639C300.16 190.239 300.86 188.979 301.42 188.279L303.38 185.899C303.66 185.479 304.36 185.479 304.64 185.899L314.3 197.799ZM317.38 195.419L304.5 179.879C304.22 179.599 303.8 179.599 303.52 179.879L290.78 195.419C288.4 198.359 287 202.139 287 206.199C287 215.579 294.7 223.279 304.08 223.279C313.46 223.279 321.16 215.719 321.16 206.199C321.16 202.139 319.76 198.359 317.38 195.419ZM293.86 197.799L294.98 196.399V196.679C294.98 196.819 294.98 197.099 295.12 197.239C295.82 201.159 298.48 204.379 302.96 206.899C306.74 209.139 308.98 211.659 309.68 214.319C309.96 215.439 309.96 216.559 309.82 217.539C308.14 218.379 306.18 218.799 304.08 218.799C296.8 218.799 291.06 212.919 291.06 205.779C290.92 202.839 292.04 200.039 293.86 197.799Z" fill="white" fill-opacity="0.1"/>
</g>
<g clip-path="url(#clip15_20_110)">
<path fill-rule="evenodd" clip-rule="evenodd" d="M314.3 277.6C316.12 279.84 317.1 282.64 317.1 285.72C317.1 288.8 315.98 291.74 314.16 293.98L314.02 294.12V293.84C314.02 293.7 313.88 293.42 313.88 293.14C312.9 289.08 309.96 285.72 305.06 282.92C301.7 281.1 299.88 278.72 299.32 276.2C299.04 274.52 299.18 272.84 299.74 271.44C300.16 270.04 300.86 268.78 301.42 268.08L303.38 265.7C303.66 265.28 304.36 265.28 304.64 265.7L314.3 277.6ZM317.38 275.22L304.5 259.68C304.22 259.4 303.8 259.4 303.52 259.68L290.78 275.22C288.4 278.16 287 281.94 287 286C287 295.38 294.7 303.08 304.08 303.08C313.46 303.08 321.16 295.52 321.16 286C321.16 281.94 319.76 278.16 317.38 275.22ZM293.86 277.6L294.98 276.2V276.48C294.98 276.62 294.98 276.9 295.12 277.04C295.82 280.96 298.48 284.18 302.96 286.7C306.74 288.94 308.98 291.46 309.68 294.12C309.96 295.24 309.96 296.36 309.82 297.34C308.14 298.18 306.18 298.6 304.08 298.6C296.8 298.6 291.06 292.72 291.06 285.58C290.92 282.64 292.04 279.84 293.86 277.6Z" fill="white" fill-opacity="0.1"/>
</g>
<g clip-path="url(#clip16_20_110)">
<path fill-rule="evenodd" clip-rule="evenodd" d="M253.401 154.4C255.221 156.64 256.201 159.44 256.201 162.52C256.201 165.6 255.081 168.54 253.261 170.78L253.121 170.92V170.64C253.121 170.5 252.981 170.22 252.981 169.94C252.001 165.88 249.061 162.52 244.161 159.72C240.801 157.9 238.981 155.52 238.421 153C238.141 151.32 238.281 149.64 238.841 148.24C239.261 146.84 239.961 145.58 240.521 144.88L242.481 142.5C242.761 142.08 243.461 142.08 243.741 142.5L253.401 154.4ZM256.481 152.02L243.601 136.48C243.321 136.2 242.901 136.2 242.621 136.48L229.881 152.02C227.501 154.96 226.101 158.74 226.101 162.8C226.101 172.18 233.801 179.88 243.181 179.88C252.561 179.88 260.261 172.32 260.261 162.8C260.261 158.74 258.861 154.96 256.481 152.02ZM232.961 154.4L234.081 153V153.28C234.081 153.42 234.081 153.7 234.221 153.84C234.921 157.76 237.581 160.98 242.061 163.5C245.841 165.74 248.081 168.26 248.781 170.92C249.061 172.04 249.061 173.16 248.921 174.14C247.241 174.98 245.281 175.4 243.181 175.4C235.901 175.4 230.161 169.52 230.161 162.38C230.021 159.44 231.141 156.64 232.961 154.4Z" fill="white" fill-opacity="0.1"/>
</g>
<g clip-path="url(#clip17_20_110)">
<path fill-rule="evenodd" clip-rule="evenodd" d="M253.401 73.8995C255.221 76.1395 256.201 78.9395 256.201 82.0195C256.201 85.0995 255.081 88.0395 253.261 90.2795L253.121 90.4195V90.1395C253.121 89.9995 252.981 89.7195 252.981 89.4395C252.001 85.3795 249.061 82.0195 244.161 79.2195C240.801 77.3995 238.981 75.0195 238.421 72.4995C238.141 70.8195 238.281 69.1395 238.841 67.7395C239.261 66.3395 239.961 65.0795 240.521 64.3795L242.481 61.9995C242.761 61.5795 243.461 61.5795 243.741 61.9995L253.401 73.8995ZM256.481 71.5195L243.601 55.9795C243.321 55.6995 242.901 55.6995 242.621 55.9795L229.881 71.5195C227.501 74.4595 226.101 78.2395 226.101 82.2995C226.101 91.6795 233.801 99.3795 243.181 99.3795C252.561 99.3795 260.261 91.8195 260.261 82.2995C260.261 78.2395 258.861 74.4595 256.481 71.5195ZM232.961 73.8995L234.081 72.4995V72.7795C234.081 72.9195 234.081 73.1995 234.221 73.3395C234.921 77.2595 237.581 80.4795 242.061 82.9995C245.841 85.2395 248.081 87.7595 248.781 90.4195C249.061 91.5395 249.061 92.6595 248.921 93.6395C247.241 94.4795 245.281 94.8995 243.181 94.8995C235.901 94.8995 230.161 89.0195 230.161 81.8795C230.021 78.9395 231.141 76.1395 232.961 73.8995Z" fill="white" fill-opacity="0.1"/>
</g>
<g clip-path="url(#clip18_20_110)">
<path fill-rule="evenodd" clip-rule="evenodd" d="M375.3 231.2C377.12 233.44 378.1 236.24 378.1 239.32C378.1 242.4 376.98 245.34 375.16 247.58L375.02 247.72V247.44C375.02 247.3 374.88 247.02 374.88 246.74C373.9 242.68 370.96 239.32 366.06 236.52C362.7 234.7 360.88 232.32 360.32 229.8C360.04 228.12 360.18 226.44 360.74 225.04C361.16 223.64 361.86 222.38 362.42 221.68L364.38 219.3C364.66 218.88 365.36 218.88 365.64 219.3L375.3 231.2ZM378.38 228.82L365.5 213.28C365.22 213 364.8 213 364.52 213.28L351.78 228.82C349.4 231.76 348 235.54 348 239.6C348 248.98 355.7 256.68 365.08 256.68C374.46 256.68 382.16 249.12 382.16 239.6C382.16 235.54 380.76 231.76 378.38 228.82ZM354.86 231.2L355.98 229.8V230.08C355.98 230.22 355.98 230.5 356.12 230.64C356.82 234.56 359.48 237.78 363.96 240.3C367.74 242.54 369.98 245.06 370.68 247.72C370.96 248.84 370.96 249.96 370.82 250.94C369.14 251.78 367.18 252.2 365.08 252.2C357.8 252.2 352.06 246.32 352.06 239.18C351.92 236.24 353.04 233.44 354.86 231.2Z" fill="white" fill-opacity="0.1"/>
</g>
<g clip-path="url(#clip19_20_110)">
<path fill-rule="evenodd" clip-rule="evenodd" d="M436.2 115C438.02 117.24 439 120.04 439 123.12C439 126.2 437.88 129.14 436.06 131.38L435.92 131.52V131.24C435.92 131.1 435.78 130.82 435.78 130.54C434.8 126.48 431.86 123.12 426.96 120.32C423.6 118.5 421.78 116.12 421.22 113.6C420.94 111.92 421.08 110.24 421.64 108.84C422.06 107.44 422.76 106.18 423.32 105.48L425.28 103.1C425.56 102.68 426.26 102.68 426.54 103.1L436.2 115ZM439.28 112.62L426.4 97.0796C426.12 96.7996 425.7 96.7996 425.42 97.0796L412.68 112.62C410.3 115.56 408.9 119.34 408.9 123.4C408.9 132.78 416.6 140.48 425.98 140.48C435.36 140.48 443.06 132.92 443.06 123.4C443.06 119.34 441.66 115.56 439.28 112.62ZM415.76 115L416.88 113.6V113.88C416.88 114.02 416.88 114.3 417.02 114.44C417.72 118.36 420.38 121.58 424.86 124.1C428.64 126.34 430.88 128.86 431.58 131.52C431.86 132.64 431.86 133.76 431.72 134.74C430.04 135.58 428.08 136 425.98 136C418.7 136 412.96 130.12 412.96 122.98C412.82 120.04 413.94 117.24 415.76 115Z" fill="white" fill-opacity="0.1"/>
</g>
<g clip-path="url(#clip20_20_110)">
<path fill-rule="evenodd" clip-rule="evenodd" d="M436.2 35.1998C438.02 37.4398 439 40.2398 439 43.3198C439 46.3998 437.88 49.3398 436.06 51.5798L435.92 51.7198V51.4398C435.92 51.2998 435.78 51.0198 435.78 50.7398C434.8 46.6798 431.86 43.3198 426.96 40.5198C423.6 38.6998 421.78 36.3198 421.22 33.7998C420.94 32.1198 421.08 30.4398 421.64 29.0398C422.06 27.6398 422.76 26.3798 423.32 25.6798L425.28 23.2998C425.56 22.8798 426.26 22.8798 426.54 23.2998L436.2 35.1998ZM439.28 32.8198L426.4 17.2798C426.12 16.9998 425.7 16.9998 425.42 17.2798L412.68 32.8198C410.3 35.7598 408.9 39.5398 408.9 43.5998C408.9 52.9798 416.6 60.6798 425.98 60.6798C435.36 60.6798 443.06 53.1198 443.06 43.5998C443.06 39.5398 441.66 35.7598 439.28 32.8198ZM415.76 35.1998L416.88 33.7998V34.0798C416.88 34.2198 416.88 34.4998 417.02 34.6398C417.72 38.5598 420.38 41.7798 424.86 44.2998C428.64 46.5398 430.88 49.0598 431.58 51.7198C431.86 52.8398 431.86 53.9598 431.72 54.9398C430.04 55.7798 428.08 56.1998 425.98 56.1998C418.7 56.1998 412.96 50.3198 412.96 43.1798C412.82 40.2398 413.94 37.4398 415.76 35.1998Z" fill="white" fill-opacity="0.1"/>
</g>
<g clip-path="url(#clip21_20_110)">
<path fill-rule="evenodd" clip-rule="evenodd" d="M436.2 194.799C438.02 197.039 439 199.839 439 202.919C439 205.999 437.88 208.939 436.06 211.179L435.92 211.319V211.039C435.92 210.899 435.78 210.619 435.78 210.339C434.8 206.279 431.86 202.919 426.96 200.119C423.6 198.299 421.78 195.919 421.22 193.399C420.94 191.719 421.08 190.039 421.64 188.639C422.06 187.239 422.76 185.979 423.32 185.279L425.28 182.899C425.56 182.479 426.26 182.479 426.54 182.899L436.2 194.799ZM439.28 192.419L426.4 176.879C426.12 176.599 425.7 176.599 425.42 176.879L412.68 192.419C410.3 195.359 408.9 199.139 408.9 203.199C408.9 212.579 416.6 220.279 425.98 220.279C435.36 220.279 443.06 212.719 443.06 203.199C443.06 199.139 441.66 195.359 439.28 192.419ZM415.76 194.799L416.88 193.399V193.679C416.88 193.819 416.88 194.099 417.02 194.239C417.72 198.159 420.38 201.379 424.86 203.899C428.64 206.139 430.88 208.659 431.58 211.319C431.86 212.439 431.86 213.559 431.72 214.539C430.04 215.379 428.08 215.799 425.98 215.799C418.7 215.799 412.96 209.919 412.96 202.779C412.82 199.839 413.94 197.039 415.76 194.799Z" fill="white" fill-opacity="0.1"/>
</g>
<g clip-path="url(#clip22_20_110)">
<path fill-rule="evenodd" clip-rule="evenodd" d="M436.2 274.6C438.02 276.84 439 279.64 439 282.72C439 285.8 437.88 288.74 436.06 290.98L435.92 291.12V290.84C435.92 290.7 435.78 290.42 435.78 290.14C434.8 286.08 431.86 282.72 426.96 279.92C423.6 278.1 421.78 275.72 421.22 273.2C420.94 271.52 421.08 269.84 421.64 268.44C422.06 267.04 422.76 265.78 423.32 265.08L425.28 262.7C425.56 262.28 426.26 262.28 426.54 262.7L436.2 274.6ZM439.28 272.22L426.4 256.68C426.12 256.4 425.7 256.4 425.42 256.68L412.68 272.22C410.3 275.16 408.9 278.94 408.9 283C408.9 292.38 416.6 300.08 425.98 300.08C435.36 300.08 443.06 292.52 443.06 283C443.06 278.94 441.66 275.16 439.28 272.22ZM415.76 274.6L416.88 273.2V273.48C416.88 273.62 416.88 273.9 417.02 274.04C417.72 277.96 420.38 281.18 424.86 283.7C428.64 285.94 430.88 288.46 431.58 291.12C431.86 292.24 431.86 293.36 431.72 294.34C430.04 295.18 428.08 295.6 425.98 295.6C418.7 295.6 412.96 289.72 412.96 282.58C412.82 279.64 413.94 276.84 415.76 274.6Z" fill="white" fill-opacity="0.1"/>
</g>
<g clip-path="url(#clip23_20_110)">
<path fill-rule="evenodd" clip-rule="evenodd" d="M62.3005 197.799C64.1205 200.039 65.1005 202.839 65.1005 205.919C65.1005 208.999 63.9805 211.939 62.1605 214.179L62.0205 214.319V214.039C62.0205 213.899 61.8805 213.619 61.8805 213.339C60.9005 209.279 57.9605 205.919 53.0605 203.119C49.7005 201.299 47.8805 198.919 47.3205 196.399C47.0405 194.719 47.1805 193.039 47.7405 191.639C48.1605 190.239 48.8605 188.979 49.4205 188.279L51.3805 185.899C51.6605 185.479 52.3605 185.479 52.6405 185.899L62.3005 197.799ZM65.3805 195.419L52.5005 179.879C52.2205 179.599 51.8005 179.599 51.5205 179.879L38.7805 195.419C36.4005 198.359 35.0005 202.139 35.0005 206.199C35.0005 215.579 42.7005 223.279 52.0805 223.279C61.4605 223.279 69.1605 215.719 69.1605 206.199C69.1605 202.139 67.7605 198.359 65.3805 195.419ZM41.8605 197.799L42.9805 196.399V196.679C42.9805 196.819 42.9805 197.099 43.1205 197.239C43.8205 201.159 46.4805 204.379 50.9605 206.899C54.7405 209.139 56.9805 211.659 57.6805 214.319C57.9605 215.439 57.9605 216.559 57.8205 217.539C56.1405 218.379 54.1805 218.799 52.0805 218.799C44.8005 218.799 39.0605 212.919 39.0605 205.779C38.9205 202.839 40.0405 200.039 41.8605 197.799Z" fill="white" fill-opacity="0.1"/>
</g>
<g clip-path="url(#clip24_20_110)">
<path fill-rule="evenodd" clip-rule="evenodd" d="M62.3005 277.6C64.1205 279.84 65.1005 282.64 65.1005 285.72C65.1005 288.8 63.9805 291.74 62.1605 293.98L62.0205 294.12V293.84C62.0205 293.7 61.8805 293.42 61.8805 293.14C60.9005 289.08 57.9605 285.72 53.0605 282.92C49.7005 281.1 47.8805 278.72 47.3205 276.2C47.0405 274.52 47.1805 272.84 47.7405 271.44C48.1605 270.04 48.8605 268.78 49.4205 268.08L51.3805 265.7C51.6605 265.28 52.3605 265.28 52.6405 265.7L62.3005 277.6ZM65.3805 275.22L52.5005 259.68C52.2205 259.4 51.8005 259.4 51.5205 259.68L38.7805 275.22C36.4005 278.16 35.0005 281.94 35.0005 286C35.0005 295.38 42.7005 303.08 52.0805 303.08C61.4605 303.08 69.1605 295.52 69.1605 286C69.1605 281.94 67.7605 278.16 65.3805 275.22ZM41.8605 277.6L42.9805 276.2V276.48C42.9805 276.62 42.9805 276.9 43.1205 277.04C43.8205 280.96 46.4805 284.18 50.9605 286.7C54.7405 288.94 56.9805 291.46 57.6805 294.12C57.9605 295.24 57.9605 296.36 57.8205 297.34C56.1405 298.18 54.1805 298.6 52.0805 298.6C44.8005 298.6 39.0605 292.72 39.0605 285.58C38.9205 282.64 40.0405 279.84 41.8605 277.6Z" fill="white" fill-opacity="0.1"/>
</g>
<g clip-path="url(#clip25_20_110)">
<path fill-rule="evenodd" clip-rule="evenodd" d="M125.3 234.2C127.12 236.44 128.1 239.24 128.1 242.32C128.1 245.4 126.98 248.34 125.16 250.58L125.02 250.72V250.44C125.02 250.3 124.88 250.02 124.88 249.74C123.9 245.68 120.96 242.32 116.06 239.52C112.7 237.7 110.88 235.32 110.32 232.8C110.04 231.12 110.18 229.44 110.74 228.04C111.16 226.64 111.86 225.38 112.42 224.68L114.38 222.3C114.66 221.88 115.36 221.88 115.64 222.3L125.3 234.2ZM128.38 231.82L115.5 216.28C115.22 216 114.8 216 114.52 216.28L101.78 231.82C99.4005 234.76 98.0005 238.54 98.0005 242.6C98.0005 251.98 105.7 259.68 115.08 259.68C124.46 259.68 132.16 252.12 132.16 242.6C132.16 238.54 130.76 234.76 128.38 231.82ZM104.86 234.2L105.98 232.8V233.08C105.98 233.22 105.98 233.5 106.12 233.64C106.82 237.56 109.48 240.78 113.96 243.3C117.74 245.54 119.98 248.06 120.68 250.72C120.96 251.84 120.96 252.96 120.82 253.94C119.14 254.78 117.18 255.2 115.08 255.2C107.8 255.2 102.06 249.32 102.06 242.18C101.92 239.24 103.04 236.44 104.86 234.2Z" fill="white" fill-opacity="0.1"/>
</g>
<g clip-path="url(#clip26_20_110)">
<path fill-rule="evenodd" clip-rule="evenodd" d="M186.2 197.799C188.02 200.039 189 202.839 189 205.919C189 208.999 187.88 211.939 186.06 214.179L185.92 214.319V214.039C185.92 213.899 185.78 213.619 185.78 213.339C184.8 209.279 181.86 205.919 176.96 203.119C173.6 201.299 171.78 198.919 171.22 196.399C170.94 194.719 171.08 193.039 171.64 191.639C172.06 190.239 172.76 188.979 173.32 188.279L175.28 185.899C175.56 185.479 176.26 185.479 176.54 185.899L186.2 197.799ZM189.28 195.419L176.4 179.879C176.12 179.599 175.7 179.599 175.42 179.879L162.68 195.419C160.3 198.359 158.9 202.139 158.9 206.199C158.9 215.579 166.6 223.279 175.98 223.279C185.36 223.279 193.06 215.719 193.06 206.199C193.06 202.139 191.66 198.359 189.28 195.419ZM165.76 197.799L166.88 196.399V196.679C166.88 196.819 166.88 197.099 167.02 197.239C167.72 201.159 170.38 204.379 174.86 206.899C178.64 209.139 180.88 211.659 181.58 214.319C181.86 215.439 181.86 216.559 181.72 217.539C180.04 218.379 178.08 218.799 175.98 218.799C168.7 218.799 162.96 212.919 162.96 205.779C162.82 202.839 163.94 200.039 165.76 197.799Z" fill="white" fill-opacity="0.1"/>
</g>
<g clip-path="url(#clip27_20_110)">
<path fill-rule="evenodd" clip-rule="evenodd" d="M253.401 234.2C255.221 236.44 256.201 239.24 256.201 242.32C256.201 245.4 255.081 248.34 253.261 250.58L253.121 250.72V250.44C253.121 250.3 252.981 250.02 252.981 249.74C252.001 245.68 249.061 242.32 244.161 239.52C240.801 237.7 238.981 235.32 238.421 232.8C238.141 231.12 238.281 229.44 238.841 228.04C239.261 226.64 239.961 225.38 240.521 224.68L242.481 222.3C242.761 221.88 243.461 221.88 243.741 222.3L253.401 234.2ZM256.481 231.82L243.601 216.28C243.321 216 242.901 216 242.621 216.28L229.881 231.82C227.501 234.76 226.101 238.54 226.101 242.6C226.101 251.98 233.801 259.68 243.181 259.68C252.561 259.68 260.261 252.12 260.261 242.6C260.261 238.54 258.861 234.76 256.481 231.82ZM232.961 234.2L234.081 232.8V233.08C234.081 233.22 234.081 233.5 234.221 233.64C234.921 237.56 237.581 240.78 242.061 243.3C245.841 245.54 248.081 248.06 248.781 250.72C249.061 251.84 249.061 252.96 248.921 253.94C247.241 254.78 245.281 255.2 243.181 255.2C235.901 255.2 230.161 249.32 230.161 242.18C230.021 239.24 231.141 236.44 232.961 234.2Z" fill="white" fill-opacity="0.1"/>
</g>
<g clip-path="url(#clip28_20_110)">
<path fill-rule="evenodd" clip-rule="evenodd" d="M186.2 277.6C188.02 279.84 189 282.64 189 285.72C189 288.8 187.88 291.74 186.06 293.98L185.92 294.12V293.84C185.92 293.7 185.78 293.42 185.78 293.14C184.8 289.08 181.86 285.72 176.96 282.92C173.6 281.1 171.78 278.72 171.22 276.2C170.94 274.52 171.08 272.84 171.64 271.44C172.06 270.04 172.76 268.78 173.32 268.08L175.28 265.7C175.56 265.28 176.26 265.28 176.54 265.7L186.2 277.6ZM189.28 275.22L176.4 259.68C176.12 259.4 175.7 259.4 175.42 259.68L162.68 275.22C160.3 278.16 158.9 281.94 158.9 286C158.9 295.38 166.6 303.08 175.98 303.08C185.36 303.08 193.06 295.52 193.06 286C193.06 281.94 191.66 278.16 189.28 275.22ZM165.76 277.6L166.88 276.2V276.48C166.88 276.62 166.88 276.9 167.02 277.04C167.72 280.96 170.38 284.18 174.86 286.7C178.64 288.94 180.88 291.46 181.58 294.12C181.86 295.24 181.86 296.36 181.72 297.34C180.04 298.18 178.08 298.6 175.98 298.6C168.7 298.6 162.96 292.72 162.96 285.58C162.82 282.64 163.94 279.84 165.76 277.6Z" fill="white" fill-opacity="0.1"/>
</g>
<g clip-path="url(#clip29_20_110)">
<path fill-rule="evenodd" clip-rule="evenodd" d="M314.3 197.799C316.12 200.039 317.1 202.839 317.1 205.919C317.1 208.999 315.98 211.939 314.16 214.179L314.02 214.319V214.039C314.02 213.899 313.88 213.619 313.88 213.339C312.9 209.279 309.96 205.919 305.06 203.119C301.7 201.299 299.88 198.919 299.32 196.399C299.04 194.719 299.18 193.039 299.74 191.639C300.16 190.239 300.86 188.979 301.42 188.279L303.38 185.899C303.66 185.479 304.36 185.479 304.64 185.899L314.3 197.799ZM317.38 195.419L304.5 179.879C304.22 179.599 303.8 179.599 303.52 179.879L290.78 195.419C288.4 198.359 287 202.139 287 206.199C287 215.579 294.7 223.279 304.08 223.279C313.46 223.279 321.16 215.719 321.16 206.199C321.16 202.139 319.76 198.359 317.38 195.419ZM293.86 197.799L294.98 196.399V196.679C294.98 196.819 294.98 197.099 295.12 197.239C295.82 201.159 298.48 204.379 302.96 206.899C306.74 209.139 308.98 211.659 309.68 214.319C309.96 215.439 309.96 216.559 309.82 217.539C308.14 218.379 306.18 218.799 304.08 218.799C296.8 218.799 291.06 212.919 291.06 205.779C290.92 202.839 292.04 200.039 293.86 197.799Z" fill="white" fill-opacity="0.1"/>
</g>
<g clip-path="url(#clip30_20_110)">
<path fill-rule="evenodd" clip-rule="evenodd" d="M314.3 277.6C316.12 279.84 317.1 282.64 317.1 285.72C317.1 288.8 315.98 291.74 314.16 293.98L314.02 294.12V293.84C314.02 293.7 313.88 293.42 313.88 293.14C312.9 289.08 309.96 285.72 305.06 282.92C301.7 281.1 299.88 278.72 299.32 276.2C299.04 274.52 299.18 272.84 299.74 271.44C300.16 270.04 300.86 268.78 301.42 268.08L303.38 265.7C303.66 265.28 304.36 265.28 304.64 265.7L314.3 277.6ZM317.38 275.22L304.5 259.68C304.22 259.4 303.8 259.4 303.52 259.68L290.78 275.22C288.4 278.16 287 281.94 287 286C287 295.38 294.7 303.08 304.08 303.08C313.46 303.08 321.16 295.52 321.16 286C321.16 281.94 319.76 278.16 317.38 275.22ZM293.86 277.6L294.98 276.2V276.48C294.98 276.62 294.98 276.9 295.12 277.04C295.82 280.96 298.48 284.18 302.96 286.7C306.74 288.94 308.98 291.46 309.68 294.12C309.96 295.24 309.96 296.36 309.82 297.34C308.14 298.18 306.18 298.6 304.08 298.6C296.8 298.6 291.06 292.72 291.06 285.58C290.92 282.64 292.04 279.84 293.86 277.6Z" fill="white" fill-opacity="0.1"/>
</g>
<g clip-path="url(#clip31_20_110)">
<path fill-rule="evenodd" clip-rule="evenodd" d="M375.3 231.2C377.12 233.44 378.1 236.24 378.1 239.32C378.1 242.4 376.98 245.34 375.16 247.58L375.02 247.72V247.44C375.02 247.3 374.88 247.02 374.88 246.74C373.9 242.68 370.96 239.32 366.06 236.52C362.7 234.7 360.88 232.32 360.32 229.8C360.04 228.12 360.18 226.44 360.74 225.04C361.16 223.64 361.86 222.38 362.42 221.68L364.38 219.3C364.66 218.88 365.36 218.88 365.64 219.3L375.3 231.2ZM378.38 228.82L365.5 213.28C365.22 213 364.8 213 364.52 213.28L351.78 228.82C349.4 231.76 348 235.54 348 239.6C348 248.98 355.7 256.68 365.08 256.68C374.46 256.68 382.16 249.12 382.16 239.6C382.16 235.54 380.76 231.76 378.38 228.82ZM354.86 231.2L355.98 229.8V230.08C355.98 230.22 355.98 230.5 356.12 230.64C356.82 234.56 359.48 237.78 363.96 240.3C367.74 242.54 369.98 245.06 370.68 247.72C370.96 248.84 370.96 249.96 370.82 250.94C369.14 251.78 367.18 252.2 365.08 252.2C357.8 252.2 352.06 246.32 352.06 239.18C351.92 236.24 353.04 233.44 354.86 231.2Z" fill="white" fill-opacity="0.1"/>
</g>
<g clip-path="url(#clip32_20_110)">
<path fill-rule="evenodd" clip-rule="evenodd" d="M436.2 194.799C438.02 197.039 439 199.839 439 202.919C439 205.999 437.88 208.939 436.06 211.179L435.92 211.319V211.039C435.92 210.899 435.78 210.619 435.78 210.339C434.8 206.279 431.86 202.919 426.96 200.119C423.6 198.299 421.78 195.919 421.22 193.399C420.94 191.719 421.08 190.039 421.64 188.639C422.06 187.239 422.76 185.979 423.32 185.279L425.28 182.899C425.56 182.479 426.26 182.479 426.54 182.899L436.2 194.799ZM439.28 192.419L426.4 176.879C426.12 176.599 425.7 176.599 425.42 176.879L412.68 192.419C410.3 195.359 408.9 199.139 408.9 203.199C408.9 212.579 416.6 220.279 425.98 220.279C435.36 220.279 443.06 212.719 443.06 203.199C443.06 199.139 441.66 195.359 439.28 192.419ZM415.76 194.799L416.88 193.399V193.679C416.88 193.819 416.88 194.099 417.02 194.239C417.72 198.159 420.38 201.379 424.86 203.899C428.64 206.139 430.88 208.659 431.58 211.319C431.86 212.439 431.86 213.559 431.72 214.539C430.04 215.379 428.08 215.799 425.98 215.799C418.7 215.799 412.96 209.919 412.96 202.779C412.82 199.839 413.94 197.039 415.76 194.799Z" fill="white" fill-opacity="0.1"/>
</g>
<g clip-path="url(#clip33_20_110)">
<path fill-rule="evenodd" clip-rule="evenodd" d="M436.2 274.6C438.02 276.84 439 279.64 439 282.72C439 285.8 437.88 288.74 436.06 290.98L435.92 291.12V290.84C435.92 290.7 435.78 290.42 435.78 290.14C434.8 286.08 431.86 282.72 426.96 279.92C423.6 278.1 421.78 275.72 421.22 273.2C420.94 271.52 421.08 269.84 421.64 268.44C422.06 267.04 422.76 265.78 423.32 265.08L425.28 262.7C425.56 262.28 426.26 262.28 426.54 262.7L436.2 274.6ZM439.28 272.22L426.4 256.68C426.12 256.4 425.7 256.4 425.42 256.68L412.68 272.22C410.3 275.16 408.9 278.94 408.9 283C408.9 292.38 416.6 300.08 425.98 300.08C435.36 300.08 443.06 292.52 443.06 283C443.06 278.94 441.66 275.16 439.28 272.22ZM415.76 274.6L416.88 273.2V273.48C416.88 273.62 416.88 273.9 417.02 274.04C417.72 277.96 420.38 281.18 424.86 283.7C428.64 285.94 430.88 288.46 431.58 291.12C431.86 292.24 431.86 293.36 431.72 294.34C430.04 295.18 428.08 295.6 425.98 295.6C418.7 295.6 412.96 289.72 412.96 282.58C412.82 279.64 413.94 276.84 415.76 274.6Z" fill="white" fill-opacity="0.1"/>
</g>
<g clip-path="url(#clip34_20_110)">
<path fill-rule="evenodd" clip-rule="evenodd" d="M375.3 151.4C377.12 153.64 378.1 156.44 378.1 159.52C378.1 162.6 376.98 165.54 375.16 167.78L375.02 167.92V167.64C375.02 167.5 374.88 167.22 374.88 166.94C373.9 162.88 370.96 159.52 366.06 156.72C362.7 154.9 360.88 152.52 360.32 150C360.04 148.32 360.18 146.64 360.74 145.24C361.16 143.84 361.86 142.58 362.42 141.88L364.38 139.5C364.66 139.08 365.36 139.08 365.64 139.5L375.3 151.4ZM378.38 149.02L365.5 133.48C365.22 133.2 364.8 133.2 364.52 133.48L351.78 149.02C349.4 151.96 348 155.74 348 159.8C348 169.18 355.7 176.88 365.08 176.88C374.46 176.88 382.16 169.32 382.16 159.8C382.16 155.74 380.76 151.96 378.38 149.02ZM354.86 151.4L355.98 150V150.28C355.98 150.42 355.98 150.7 356.12 150.84C356.82 154.76 359.48 157.98 363.96 160.5C367.74 162.74 369.98 165.26 370.68 167.92C370.96 169.04 370.96 170.16 370.82 171.14C369.14 171.98 367.18 172.4 365.08 172.4C357.8 172.4 352.06 166.52 352.06 159.38C351.92 156.44 353.04 153.64 354.86 151.4Z" fill="white" fill-opacity="0.1"/>
</g>
<g clip-path="url(#clip35_20_110)">
<path fill-rule="evenodd" clip-rule="evenodd" d="M63.3005 357.599C65.1205 359.839 66.1005 362.639 66.1005 365.719C66.1005 368.799 64.9805 371.739 63.1605 373.979L63.0205 374.119V373.839C63.0205 373.699 62.8805 373.419 62.8805 373.139C61.9005 369.079 58.9605 365.719 54.0605 362.919C50.7005 361.099 48.8805 358.719 48.3205 356.199C48.0405 354.519 48.1805 352.839 48.7405 351.439C49.1605 350.039 49.8605 348.779 50.4205 348.079L52.3805 345.699C52.6605 345.279 53.3605 345.279 53.6405 345.699L63.3005 357.599ZM66.3805 355.219L53.5005 339.679C53.2205 339.399 52.8005 339.399 52.5205 339.679L39.7805 355.219C37.4005 358.159 36.0005 361.939 36.0005 365.999C36.0005 375.379 43.7005 383.079 53.0805 383.079C62.4605 383.079 70.1605 375.519 70.1605 365.999C70.1605 361.939 68.7605 358.159 66.3805 355.219ZM42.8605 357.599L43.9805 356.199V356.479C43.9805 356.619 43.9805 356.899 44.1205 357.039C44.8205 360.959 47.4805 364.179 51.9605 366.699C55.7405 368.939 57.9805 371.459 58.6805 374.119C58.9605 375.239 58.9605 376.359 58.8205 377.339C57.1405 378.179 55.1805 378.599 53.0805 378.599C45.8005 378.599 40.0605 372.719 40.0605 365.579C39.9205 362.639 41.0405 359.839 42.8605 357.599Z" fill="white" fill-opacity="0.1"/>
</g>
<g clip-path="url(#clip36_20_110)">
<path fill-rule="evenodd" clip-rule="evenodd" d="M63.3005 437.4C65.1205 439.64 66.1005 442.44 66.1005 445.52C66.1005 448.6 64.9805 451.54 63.1605 453.78L63.0205 453.92V453.64C63.0205 453.5 62.8805 453.22 62.8805 452.94C61.9005 448.88 58.9605 445.52 54.0605 442.72C50.7005 440.9 48.8805 438.52 48.3205 436C48.0405 434.32 48.1805 432.64 48.7405 431.24C49.1605 429.84 49.8605 428.58 50.4205 427.88L52.3805 425.5C52.6605 425.08 53.3605 425.08 53.6405 425.5L63.3005 437.4ZM66.3805 435.02L53.5005 419.48C53.2205 419.2 52.8005 419.2 52.5205 419.48L39.7805 435.02C37.4005 437.96 36.0005 441.74 36.0005 445.8C36.0005 455.18 43.7005 462.88 53.0805 462.88C62.4605 462.88 70.1605 455.32 70.1605 445.8C70.1605 441.74 68.7605 437.96 66.3805 435.02ZM42.8605 437.4L43.9805 436V436.28C43.9805 436.42 43.9805 436.7 44.1205 436.84C44.8205 440.76 47.4805 443.98 51.9605 446.5C55.7405 448.74 57.9805 451.26 58.6805 453.92C58.9605 455.04 58.9605 456.16 58.8205 457.14C57.1405 457.98 55.1805 458.4 53.0805 458.4C45.8005 458.4 40.0605 452.52 40.0605 445.38C39.9205 442.44 41.0405 439.64 42.8605 437.4Z" fill="white" fill-opacity="0.1"/>
</g>
<g clip-path="url(#clip37_20_110)">
<path fill-rule="evenodd" clip-rule="evenodd" d="M126.3 394C128.12 396.24 129.1 399.04 129.1 402.12C129.1 405.2 127.98 408.14 126.16 410.38L126.02 410.52V410.24C126.02 410.1 125.88 409.82 125.88 409.54C124.9 405.48 121.96 402.12 117.06 399.32C113.7 397.5 111.88 395.12 111.32 392.6C111.04 390.92 111.18 389.24 111.74 387.84C112.16 386.44 112.86 385.18 113.42 384.48L115.38 382.1C115.66 381.68 116.36 381.68 116.64 382.1L126.3 394ZM129.38 391.62L116.5 376.08C116.22 375.8 115.8 375.8 115.52 376.08L102.78 391.62C100.4 394.56 99.0005 398.34 99.0005 402.4C99.0005 411.78 106.7 419.48 116.08 419.48C125.46 419.48 133.16 411.92 133.16 402.4C133.16 398.34 131.76 394.56 129.38 391.62ZM105.86 394L106.98 392.6V392.88C106.98 393.02 106.98 393.3 107.12 393.44C107.82 397.36 110.48 400.58 114.96 403.1C118.74 405.34 120.98 407.86 121.68 410.52C121.96 411.64 121.96 412.76 121.82 413.74C120.14 414.58 118.18 415 116.08 415C108.8 415 103.06 409.12 103.06 401.98C102.92 399.04 104.04 396.24 105.86 394Z" fill="white" fill-opacity="0.1"/>
</g>
<g clip-path="url(#clip38_20_110)">
<path fill-rule="evenodd" clip-rule="evenodd" d="M126.3 314.199C128.12 316.439 129.1 319.239 129.1 322.319C129.1 325.399 127.98 328.339 126.16 330.579L126.02 330.719V330.439C126.02 330.299 125.88 330.019 125.88 329.739C124.9 325.679 121.96 322.319 117.06 319.519C113.7 317.699 111.88 315.319 111.32 312.799C111.04 311.119 111.18 309.439 111.74 308.039C112.16 306.639 112.86 305.379 113.42 304.679L115.38 302.299C115.66 301.879 116.36 301.879 116.64 302.299L126.3 314.199ZM129.38 311.819L116.5 296.279C116.22 295.999 115.8 295.999 115.52 296.279L102.78 311.819C100.4 314.759 99.0005 318.539 99.0005 322.599C99.0005 331.979 106.7 339.679 116.08 339.679C125.46 339.679 133.16 332.119 133.16 322.599C133.16 318.539 131.76 314.759 129.38 311.819ZM105.86 314.199L106.98 312.799V313.079C106.98 313.219 106.98 313.499 107.12 313.639C107.82 317.559 110.48 320.779 114.96 323.299C118.74 325.539 120.98 328.059 121.68 330.719C121.96 331.839 121.96 332.959 121.82 333.939C120.14 334.779 118.18 335.199 116.08 335.199C108.8 335.199 103.06 329.319 103.06 322.179C102.92 319.239 104.04 316.439 105.86 314.199Z" fill="white" fill-opacity="0.1"/>
</g>
<g clip-path="url(#clip39_20_110)">
<path fill-rule="evenodd" clip-rule="evenodd" d="M187.2 357.599C189.02 359.839 190 362.639 190 365.719C190 368.799 188.88 371.739 187.06 373.979L186.92 374.119V373.839C186.92 373.699 186.78 373.419 186.78 373.139C185.8 369.079 182.86 365.719 177.96 362.919C174.6 361.099 172.78 358.719 172.22 356.199C171.94 354.519 172.08 352.839 172.64 351.439C173.06 350.039 173.76 348.779 174.32 348.079L176.28 345.699C176.56 345.279 177.26 345.279 177.54 345.699L187.2 357.599ZM190.28 355.219L177.4 339.679C177.12 339.399 176.7 339.399 176.42 339.679L163.68 355.219C161.3 358.159 159.9 361.939 159.9 365.999C159.9 375.379 167.6 383.079 176.98 383.079C186.36 383.079 194.06 375.519 194.06 365.999C194.06 361.939 192.66 358.159 190.28 355.219ZM166.76 357.599L167.88 356.199V356.479C167.88 356.619 167.88 356.899 168.02 357.039C168.72 360.959 171.38 364.179 175.86 366.699C179.64 368.939 181.88 371.459 182.58 374.119C182.86 375.239 182.86 376.359 182.72 377.339C181.04 378.179 179.08 378.599 176.98 378.599C169.7 378.599 163.96 372.719 163.96 365.579C163.82 362.639 164.94 359.839 166.76 357.599Z" fill="white" fill-opacity="0.1"/>
</g>
<g clip-path="url(#clip40_20_110)">
<path fill-rule="evenodd" clip-rule="evenodd" d="M254.401 394C256.221 396.24 257.201 399.04 257.201 402.12C257.201 405.2 256.081 408.14 254.261 410.38L254.121 410.52V410.24C254.121 410.1 253.981 409.82 253.981 409.54C253.001 405.48 250.061 402.12 245.161 399.32C241.801 397.5 239.981 395.12 239.421 392.6C239.141 390.92 239.281 389.24 239.841 387.84C240.261 386.44 240.961 385.18 241.521 384.48L243.481 382.1C243.761 381.68 244.461 381.68 244.741 382.1L254.401 394ZM257.481 391.62L244.601 376.08C244.321 375.8 243.901 375.8 243.621 376.08L230.881 391.62C228.501 394.56 227.101 398.34 227.101 402.4C227.101 411.78 234.801 419.48 244.181 419.48C253.561 419.48 261.261 411.92 261.261 402.4C261.261 398.34 259.861 394.56 257.481 391.62ZM233.961 394L235.081 392.6V392.88C235.081 393.02 235.081 393.3 235.221 393.44C235.921 397.36 238.581 400.58 243.061 403.1C246.841 405.34 249.081 407.86 249.781 410.52C250.061 411.64 250.061 412.76 249.921 413.74C248.241 414.58 246.281 415 244.181 415C236.901 415 231.161 409.12 231.161 401.98C231.021 399.04 232.141 396.24 233.961 394Z" fill="white" fill-opacity="0.1"/>
</g>
<g clip-path="url(#clip41_20_110)">
<path fill-rule="evenodd" clip-rule="evenodd" d="M187.2 437.4C189.02 439.64 190 442.44 190 445.52C190 448.6 188.88 451.54 187.06 453.78L186.92 453.92V453.64C186.92 453.5 186.78 453.22 186.78 452.94C185.8 448.88 182.86 445.52 177.96 442.72C174.6 440.9 172.78 438.52 172.22 436C171.94 434.32 172.08 432.64 172.64 431.24C173.06 429.84 173.76 428.58 174.32 427.88L176.28 425.5C176.56 425.08 177.26 425.08 177.54 425.5L187.2 437.4ZM190.28 435.02L177.4 419.48C177.12 419.2 176.7 419.2 176.42 419.48L163.68 435.02C161.3 437.96 159.9 441.74 159.9 445.8C159.9 455.18 167.6 462.88 176.98 462.88C186.36 462.88 194.06 455.32 194.06 445.8C194.06 441.74 192.66 437.96 190.28 435.02ZM166.76 437.4L167.88 436V436.28C167.88 436.42 167.88 436.7 168.02 436.84C168.72 440.76 171.38 443.98 175.86 446.5C179.64 448.74 181.88 451.26 182.58 453.92C182.86 455.04 182.86 456.16 182.72 457.14C181.04 457.98 179.08 458.4 176.98 458.4C169.7 458.4 163.96 452.52 163.96 445.38C163.82 442.44 164.94 439.64 166.76 437.4Z" fill="white" fill-opacity="0.1"/>
</g>
<g clip-path="url(#clip42_20_110)">
<path fill-rule="evenodd" clip-rule="evenodd" d="M315.3 357.599C317.12 359.839 318.1 362.639 318.1 365.719C318.1 368.799 316.98 371.739 315.16 373.979L315.02 374.119V373.839C315.02 373.699 314.88 373.419 314.88 373.139C313.9 369.079 310.96 365.719 306.06 362.919C302.7 361.099 300.88 358.719 300.32 356.199C300.04 354.519 300.18 352.839 300.74 351.439C301.16 350.039 301.86 348.779 302.42 348.079L304.38 345.699C304.66 345.279 305.36 345.279 305.64 345.699L315.3 357.599ZM318.38 355.219L305.5 339.679C305.22 339.399 304.8 339.399 304.52 339.679L291.78 355.219C289.4 358.159 288 361.939 288 365.999C288 375.379 295.7 383.079 305.08 383.079C314.46 383.079 322.16 375.519 322.16 365.999C322.16 361.939 320.76 358.159 318.38 355.219ZM294.86 357.599L295.98 356.199V356.479C295.98 356.619 295.98 356.899 296.12 357.039C296.82 360.959 299.48 364.179 303.96 366.699C307.74 368.939 309.98 371.459 310.68 374.119C310.96 375.239 310.96 376.359 310.82 377.339C309.14 378.179 307.18 378.599 305.08 378.599C297.8 378.599 292.06 372.719 292.06 365.579C291.92 362.639 293.04 359.839 294.86 357.599Z" fill="white" fill-opacity="0.1"/>
</g>
<g clip-path="url(#clip43_20_110)">
<path fill-rule="evenodd" clip-rule="evenodd" d="M315.3 437.4C317.12 439.64 318.1 442.44 318.1 445.52C318.1 448.6 316.98 451.54 315.16 453.78L315.02 453.92V453.64C315.02 453.5 314.88 453.22 314.88 452.94C313.9 448.88 310.96 445.52 306.06 442.72C302.7 440.9 300.88 438.52 300.32 436C300.04 434.32 300.18 432.64 300.74 431.24C301.16 429.84 301.86 428.58 302.42 427.88L304.38 425.5C304.66 425.08 305.36 425.08 305.64 425.5L315.3 437.4ZM318.38 435.02L305.5 419.48C305.22 419.2 304.8 419.2 304.52 419.48L291.78 435.02C289.4 437.96 288 441.74 288 445.8C288 455.18 295.7 462.88 305.08 462.88C314.46 462.88 322.16 455.32 322.16 445.8C322.16 441.74 320.76 437.96 318.38 435.02ZM294.86 437.4L295.98 436V436.28C295.98 436.42 295.98 436.7 296.12 436.84C296.82 440.76 299.48 443.98 303.96 446.5C307.74 448.74 309.98 451.26 310.68 453.92C310.96 455.04 310.96 456.16 310.82 457.14C309.14 457.98 307.18 458.4 305.08 458.4C297.8 458.4 292.06 452.52 292.06 445.38C291.92 442.44 293.04 439.64 294.86 437.4Z" fill="white" fill-opacity="0.1"/>
</g>
<g clip-path="url(#clip44_20_110)">
<path fill-rule="evenodd" clip-rule="evenodd" d="M254.401 314.199C256.221 316.439 257.201 319.239 257.201 322.319C257.201 325.399 256.081 328.339 254.261 330.579L254.121 330.719V330.439C254.121 330.299 253.981 330.019 253.981 329.739C253.001 325.679 250.061 322.319 245.161 319.519C241.801 317.699 239.981 315.319 239.421 312.799C239.141 311.119 239.281 309.439 239.841 308.039C240.261 306.639 240.961 305.379 241.521 304.679L243.481 302.299C243.761 301.879 244.461 301.879 244.741 302.299L254.401 314.199ZM257.481 311.819L244.601 296.279C244.321 295.999 243.901 295.999 243.621 296.279L230.881 311.819C228.501 314.759 227.101 318.539 227.101 322.599C227.101 331.979 234.801 339.679 244.181 339.679C253.561 339.679 261.261 332.119 261.261 322.599C261.261 318.539 259.861 314.759 257.481 311.819ZM233.961 314.199L235.081 312.799V313.079C235.081 313.219 235.081 313.499 235.221 313.639C235.921 317.559 238.581 320.779 243.061 323.299C246.841 325.539 249.081 328.059 249.781 330.719C250.061 331.839 250.061 332.959 249.921 333.939C248.241 334.779 246.281 335.199 244.181 335.199C236.901 335.199 231.161 329.319 231.161 322.179C231.021 319.239 232.141 316.439 233.961 314.199Z" fill="white" fill-opacity="0.1"/>
</g>
<g clip-path="url(#clip45_20_110)">
<path fill-rule="evenodd" clip-rule="evenodd" d="M376.3 391C378.12 393.24 379.1 396.04 379.1 399.12C379.1 402.2 377.98 405.14 376.16 407.38L376.02 407.52V407.24C376.02 407.1 375.88 406.82 375.88 406.54C374.9 402.48 371.96 399.12 367.06 396.32C363.7 394.5 361.88 392.12 361.32 389.6C361.04 387.92 361.18 386.24 361.74 384.84C362.16 383.44 362.86 382.18 363.42 381.48L365.38 379.1C365.66 378.68 366.36 378.68 366.64 379.1L376.3 391ZM379.38 388.62L366.5 373.08C366.22 372.8 365.8 372.8 365.52 373.08L352.78 388.62C350.4 391.56 349 395.34 349 399.4C349 408.78 356.7 416.48 366.08 416.48C375.46 416.48 383.16 408.92 383.16 399.4C383.16 395.34 381.76 391.56 379.38 388.62ZM355.86 391L356.98 389.6V389.88C356.98 390.02 356.98 390.3 357.12 390.44C357.82 394.36 360.48 397.58 364.96 400.1C368.74 402.34 370.98 404.86 371.68 407.52C371.96 408.64 371.96 409.76 371.82 410.74C370.14 411.58 368.18 412 366.08 412C358.8 412 353.06 406.12 353.06 398.98C352.92 396.04 354.04 393.24 355.86 391Z" fill="white" fill-opacity="0.1"/>
</g>
<g clip-path="url(#clip46_20_110)">
<path fill-rule="evenodd" clip-rule="evenodd" d="M437.2 354.599C439.02 356.839 440 359.639 440 362.719C440 365.799 438.88 368.739 437.06 370.979L436.92 371.119V370.839C436.92 370.699 436.78 370.419 436.78 370.139C435.8 366.079 432.86 362.719 427.96 359.919C424.6 358.099 422.78 355.719 422.22 353.199C421.94 351.519 422.08 349.839 422.64 348.439C423.06 347.039 423.76 345.779 424.32 345.079L426.28 342.699C426.56 342.279 427.26 342.279 427.54 342.699L437.2 354.599ZM440.28 352.219L427.4 336.679C427.12 336.399 426.7 336.399 426.42 336.679L413.68 352.219C411.3 355.159 409.9 358.939 409.9 362.999C409.9 372.379 417.6 380.079 426.98 380.079C436.36 380.079 444.06 372.519 444.06 362.999C444.06 358.939 442.66 355.159 440.28 352.219ZM416.76 354.599L417.88 353.199V353.479C417.88 353.619 417.88 353.899 418.02 354.039C418.72 357.959 421.38 361.179 425.86 363.699C429.64 365.939 431.88 368.459 432.58 371.119C432.86 372.239 432.86 373.359 432.72 374.339C431.04 375.179 429.08 375.599 426.98 375.599C419.7 375.599 413.96 369.719 413.96 362.579C413.82 359.639 414.94 356.839 416.76 354.599Z" fill="white" fill-opacity="0.1"/>
</g>
<g clip-path="url(#clip47_20_110)">
<path fill-rule="evenodd" clip-rule="evenodd" d="M437.2 434.4C439.02 436.64 440 439.44 440 442.52C440 445.6 438.88 448.54 437.06 450.78L436.92 450.92V450.64C436.92 450.5 436.78 450.22 436.78 449.94C435.8 445.88 432.86 442.52 427.96 439.72C424.6 437.9 422.78 435.52 422.22 433C421.94 431.32 422.08 429.64 422.64 428.24C423.06 426.84 423.76 425.58 424.32 424.88L426.28 422.5C426.56 422.08 427.26 422.08 427.54 422.5L437.2 434.4ZM440.28 432.02L427.4 416.48C427.12 416.2 426.7 416.2 426.42 416.48L413.68 432.02C411.3 434.96 409.9 438.74 409.9 442.8C409.9 452.18 417.6 459.88 426.98 459.88C436.36 459.88 444.06 452.32 444.06 442.8C444.06 438.74 442.66 434.96 440.28 432.02ZM416.76 434.4L417.88 433V433.28C417.88 433.42 417.88 433.7 418.02 433.84C418.72 437.76 421.38 440.98 425.86 443.5C429.64 445.74 431.88 448.26 432.58 450.92C432.86 452.04 432.86 453.16 432.72 454.14C431.04 454.98 429.08 455.4 426.98 455.4C419.7 455.4 413.96 449.52 413.96 442.38C413.82 439.44 414.94 436.64 416.76 434.4Z" fill="white" fill-opacity="0.1"/>
</g>
<g clip-path="url(#clip48_20_110)">
<path fill-rule="evenodd" clip-rule="evenodd" d="M63.3005 357.599C65.1205 359.839 66.1005 362.639 66.1005 365.719C66.1005 368.799 64.9805 371.739 63.1605 373.979L63.0205 374.119V373.839C63.0205 373.699 62.8805 373.419 62.8805 373.139C61.9005 369.079 58.9605 365.719 54.0605 362.919C50.7005 361.099 48.8805 358.719 48.3205 356.199C48.0405 354.519 48.1805 352.839 48.7405 351.439C49.1605 350.039 49.8605 348.779 50.4205 348.079L52.3805 345.699C52.6605 345.279 53.3605 345.279 53.6405 345.699L63.3005 357.599ZM66.3805 355.219L53.5005 339.679C53.2205 339.399 52.8005 339.399 52.5205 339.679L39.7805 355.219C37.4005 358.159 36.0005 361.939 36.0005 365.999C36.0005 375.379 43.7005 383.079 53.0805 383.079C62.4605 383.079 70.1605 375.519 70.1605 365.999C70.1605 361.939 68.7605 358.159 66.3805 355.219ZM42.8605 357.599L43.9805 356.199V356.479C43.9805 356.619 43.9805 356.899 44.1205 357.039C44.8205 360.959 47.4805 364.179 51.9605 366.699C55.7405 368.939 57.9805 371.459 58.6805 374.119C58.9605 375.239 58.9605 376.359 58.8205 377.339C57.1405 378.179 55.1805 378.599 53.0805 378.599C45.8005 378.599 40.0605 372.719 40.0605 365.579C39.9205 362.639 41.0405 359.839 42.8605 357.599Z" fill="white" fill-opacity="0.1"/>
</g>
<g clip-path="url(#clip49_20_110)">
<path fill-rule="evenodd" clip-rule="evenodd" d="M63.3005 437.4C65.1205 439.64 66.1005 442.44 66.1005 445.52C66.1005 448.6 64.9805 451.54 63.1605 453.78L63.0205 453.92V453.64C63.0205 453.5 62.8805 453.22 62.8805 452.94C61.9005 448.88 58.9605 445.52 54.0605 442.72C50.7005 440.9 48.8805 438.52 48.3205 436C48.0405 434.32 48.1805 432.64 48.7405 431.24C49.1605 429.84 49.8605 428.58 50.4205 427.88L52.3805 425.5C52.6605 425.08 53.3605 425.08 53.6405 425.5L63.3005 437.4ZM66.3805 435.02L53.5005 419.48C53.2205 419.2 52.8005 419.2 52.5205 419.48L39.7805 435.02C37.4005 437.96 36.0005 441.74 36.0005 445.8C36.0005 455.18 43.7005 462.88 53.0805 462.88C62.4605 462.88 70.1605 455.32 70.1605 445.8C70.1605 441.74 68.7605 437.96 66.3805 435.02ZM42.8605 437.4L43.9805 436V436.28C43.9805 436.42 43.9805 436.7 44.1205 436.84C44.8205 440.76 47.4805 443.98 51.9605 446.5C55.7405 448.74 57.9805 451.26 58.6805 453.92C58.9605 455.04 58.9605 456.16 58.8205 457.14C57.1405 457.98 55.1805 458.4 53.0805 458.4C45.8005 458.4 40.0605 452.52 40.0605 445.38C39.9205 442.44 41.0405 439.64 42.8605 437.4Z" fill="white" fill-opacity="0.1"/>
</g>
<g clip-path="url(#clip50_20_110)">
<path fill-rule="evenodd" clip-rule="evenodd" d="M126.3 394C128.12 396.24 129.1 399.04 129.1 402.12C129.1 405.2 127.98 408.14 126.16 410.38L126.02 410.52V410.24C126.02 410.1 125.88 409.82 125.88 409.54C124.9 405.48 121.96 402.12 117.06 399.32C113.7 397.5 111.88 395.12 111.32 392.6C111.04 390.92 111.18 389.24 111.74 387.84C112.16 386.44 112.86 385.18 113.42 384.48L115.38 382.1C115.66 381.68 116.36 381.68 116.64 382.1L126.3 394ZM129.38 391.62L116.5 376.08C116.22 375.8 115.8 375.8 115.52 376.08L102.78 391.62C100.4 394.56 99.0005 398.34 99.0005 402.4C99.0005 411.78 106.7 419.48 116.08 419.48C125.46 419.48 133.16 411.92 133.16 402.4C133.16 398.34 131.76 394.56 129.38 391.62ZM105.86 394L106.98 392.6V392.88C106.98 393.02 106.98 393.3 107.12 393.44C107.82 397.36 110.48 400.58 114.96 403.1C118.74 405.34 120.98 407.86 121.68 410.52C121.96 411.64 121.96 412.76 121.82 413.74C120.14 414.58 118.18 415 116.08 415C108.8 415 103.06 409.12 103.06 401.98C102.92 399.04 104.04 396.24 105.86 394Z" fill="white" fill-opacity="0.1"/>
</g>
<g clip-path="url(#clip51_20_110)">
<path fill-rule="evenodd" clip-rule="evenodd" d="M187.2 357.599C189.02 359.839 190 362.639 190 365.719C190 368.799 188.88 371.739 187.06 373.979L186.92 374.119V373.839C186.92 373.699 186.78 373.419 186.78 373.139C185.8 369.079 182.86 365.719 177.96 362.919C174.6 361.099 172.78 358.719 172.22 356.199C171.94 354.519 172.08 352.839 172.64 351.439C173.06 350.039 173.76 348.779 174.32 348.079L176.28 345.699C176.56 345.279 177.26 345.279 177.54 345.699L187.2 357.599ZM190.28 355.219L177.4 339.679C177.12 339.399 176.7 339.399 176.42 339.679L163.68 355.219C161.3 358.159 159.9 361.939 159.9 365.999C159.9 375.379 167.6 383.079 176.98 383.079C186.36 383.079 194.06 375.519 194.06 365.999C194.06 361.939 192.66 358.159 190.28 355.219ZM166.76 357.599L167.88 356.199V356.479C167.88 356.619 167.88 356.899 168.02 357.039C168.72 360.959 171.38 364.179 175.86 366.699C179.64 368.939 181.88 371.459 182.58 374.119C182.86 375.239 182.86 376.359 182.72 377.339C181.04 378.179 179.08 378.599 176.98 378.599C169.7 378.599 163.96 372.719 163.96 365.579C163.82 362.639 164.94 359.839 166.76 357.599Z" fill="white" fill-opacity="0.1"/>
</g>
<g clip-path="url(#clip52_20_110)">
<path fill-rule="evenodd" clip-rule="evenodd" d="M254.401 394C256.221 396.24 257.201 399.04 257.201 402.12C257.201 405.2 256.081 408.14 254.261 410.38L254.121 410.52V410.24C254.121 410.1 253.981 409.82 253.981 409.54C253.001 405.48 250.061 402.12 245.161 399.32C241.801 397.5 239.981 395.12 239.421 392.6C239.141 390.92 239.281 389.24 239.841 387.84C240.261 386.44 240.961 385.18 241.521 384.48L243.481 382.1C243.761 381.68 244.461 381.68 244.741 382.1L254.401 394ZM257.481 391.62L244.601 376.08C244.321 375.8 243.901 375.8 243.621 376.08L230.881 391.62C228.501 394.56 227.101 398.34 227.101 402.4C227.101 411.78 234.801 419.48 244.181 419.48C253.561 419.48 261.261 411.92 261.261 402.4C261.261 398.34 259.861 394.56 257.481 391.62ZM233.961 394L235.081 392.6V392.88C235.081 393.02 235.081 393.3 235.221 393.44C235.921 397.36 238.581 400.58 243.061 403.1C246.841 405.34 249.081 407.86 249.781 410.52C250.061 411.64 250.061 412.76 249.921 413.74C248.241 414.58 246.281 415 244.181 415C236.901 415 231.161 409.12 231.161 401.98C231.021 399.04 232.141 396.24 233.961 394Z" fill="white" fill-opacity="0.1"/>
</g>
<g clip-path="url(#clip53_20_110)">
<path fill-rule="evenodd" clip-rule="evenodd" d="M187.2 437.4C189.02 439.64 190 442.44 190 445.52C190 448.6 188.88 451.54 187.06 453.78L186.92 453.92V453.64C186.92 453.5 186.78 453.22 186.78 452.94C185.8 448.88 182.86 445.52 177.96 442.72C174.6 440.9 172.78 438.52 172.22 436C171.94 434.32 172.08 432.64 172.64 431.24C173.06 429.84 173.76 428.58 174.32 427.88L176.28 425.5C176.56 425.08 177.26 425.08 177.54 425.5L187.2 437.4ZM190.28 435.02L177.4 419.48C177.12 419.2 176.7 419.2 176.42 419.48L163.68 435.02C161.3 437.96 159.9 441.74 159.9 445.8C159.9 455.18 167.6 462.88 176.98 462.88C186.36 462.88 194.06 455.32 194.06 445.8C194.06 441.74 192.66 437.96 190.28 435.02ZM166.76 437.4L167.88 436V436.28C167.88 436.42 167.88 436.7 168.02 436.84C168.72 440.76 171.38 443.98 175.86 446.5C179.64 448.74 181.88 451.26 182.58 453.92C182.86 455.04 182.86 456.16 182.72 457.14C181.04 457.98 179.08 458.4 176.98 458.4C169.7 458.4 163.96 452.52 163.96 445.38C163.82 442.44 164.94 439.64 166.76 437.4Z" fill="white" fill-opacity="0.1"/>
</g>
<g clip-path="url(#clip54_20_110)">
<path fill-rule="evenodd" clip-rule="evenodd" d="M315.3 357.599C317.12 359.839 318.1 362.639 318.1 365.719C318.1 368.799 316.98 371.739 315.16 373.979L315.02 374.119V373.839C315.02 373.699 314.88 373.419 314.88 373.139C313.9 369.079 310.96 365.719 306.06 362.919C302.7 361.099 300.88 358.719 300.32 356.199C300.04 354.519 300.18 352.839 300.74 351.439C301.16 350.039 301.86 348.779 302.42 348.079L304.38 345.699C304.66 345.279 305.36 345.279 305.64 345.699L315.3 357.599ZM318.38 355.219L305.5 339.679C305.22 339.399 304.8 339.399 304.52 339.679L291.78 355.219C289.4 358.159 288 361.939 288 365.999C288 375.379 295.7 383.079 305.08 383.079C314.46 383.079 322.16 375.519 322.16 365.999C322.16 361.939 320.76 358.159 318.38 355.219ZM294.86 357.599L295.98 356.199V356.479C295.98 356.619 295.98 356.899 296.12 357.039C296.82 360.959 299.48 364.179 303.96 366.699C307.74 368.939 309.98 371.459 310.68 374.119C310.96 375.239 310.96 376.359 310.82 377.339C309.14 378.179 307.18 378.599 305.08 378.599C297.8 378.599 292.06 372.719 292.06 365.579C291.92 362.639 293.04 359.839 294.86 357.599Z" fill="white" fill-opacity="0.1"/>
</g>
<g clip-path="url(#clip55_20_110)">
<path fill-rule="evenodd" clip-rule="evenodd" d="M315.3 437.4C317.12 439.64 318.1 442.44 318.1 445.52C318.1 448.6 316.98 451.54 315.16 453.78L315.02 453.92V453.64C315.02 453.5 314.88 453.22 314.88 452.94C313.9 448.88 310.96 445.52 306.06 442.72C302.7 440.9 300.88 438.52 300.32 436C300.04 434.32 300.18 432.64 300.74 431.24C301.16 429.84 301.86 428.58 302.42 427.88L304.38 425.5C304.66 425.08 305.36 425.08 305.64 425.5L315.3 437.4ZM318.38 435.02L305.5 419.48C305.22 419.2 304.8 419.2 304.52 419.48L291.78 435.02C289.4 437.96 288 441.74 288 445.8C288 455.18 295.7 462.88 305.08 462.88C314.46 462.88 322.16 455.32 322.16 445.8C322.16 441.74 320.76 437.96 318.38 435.02ZM294.86 437.4L295.98 436V436.28C295.98 436.42 295.98 436.7 296.12 436.84C296.82 440.76 299.48 443.98 303.96 446.5C307.74 448.74 309.98 451.26 310.68 453.92C310.96 455.04 310.96 456.16 310.82 457.14C309.14 457.98 307.18 458.4 305.08 458.4C297.8 458.4 292.06 452.52 292.06 445.38C291.92 442.44 293.04 439.64 294.86 437.4Z" fill="white" fill-opacity="0.1"/>
</g>
<g clip-path="url(#clip56_20_110)">
<path fill-rule="evenodd" clip-rule="evenodd" d="M376.3 391C378.12 393.24 379.1 396.04 379.1 399.12C379.1 402.2 377.98 405.14 376.16 407.38L376.02 407.52V407.24C376.02 407.1 375.88 406.82 375.88 406.54C374.9 402.48 371.96 399.12 367.06 396.32C363.7 394.5 361.88 392.12 361.32 389.6C361.04 387.92 361.18 386.24 361.74 384.84C362.16 383.44 362.86 382.18 363.42 381.48L365.38 379.1C365.66 378.68 366.36 378.68 366.64 379.1L376.3 391ZM379.38 388.62L366.5 373.08C366.22 372.8 365.8 372.8 365.52 373.08L352.78 388.62C350.4 391.56 349 395.34 349 399.4C349 408.78 356.7 416.48 366.08 416.48C375.46 416.48 383.16 408.92 383.16 399.4C383.16 395.34 381.76 391.56 379.38 388.62ZM355.86 391L356.98 389.6V389.88C356.98 390.02 356.98 390.3 357.12 390.44C357.82 394.36 360.48 397.58 364.96 400.1C368.74 402.34 370.98 404.86 371.68 407.52C371.96 408.64 371.96 409.76 371.82 410.74C370.14 411.58 368.18 412 366.08 412C358.8 412 353.06 406.12 353.06 398.98C352.92 396.04 354.04 393.24 355.86 391Z" fill="white" fill-opacity="0.1"/>
</g>
<g clip-path="url(#clip57_20_110)">
<path fill-rule="evenodd" clip-rule="evenodd" d="M437.2 354.599C439.02 356.839 440 359.639 440 362.719C440 365.799 438.88 368.739 437.06 370.979L436.92 371.119V370.839C436.92 370.699 436.78 370.419 436.78 370.139C435.8 366.079 432.86 362.719 427.96 359.919C424.6 358.099 422.78 355.719 422.22 353.199C421.94 351.519 422.08 349.839 422.64 348.439C423.06 347.039 423.76 345.779 424.32 345.079L426.28 342.699C426.56 342.279 427.26 342.279 427.54 342.699L437.2 354.599ZM440.28 352.219L427.4 336.679C427.12 336.399 426.7 336.399 426.42 336.679L413.68 352.219C411.3 355.159 409.9 358.939 409.9 362.999C409.9 372.379 417.6 380.079 426.98 380.079C436.36 380.079 444.06 372.519 444.06 362.999C444.06 358.939 442.66 355.159 440.28 352.219ZM416.76 354.599L417.88 353.199V353.479C417.88 353.619 417.88 353.899 418.02 354.039C418.72 357.959 421.38 361.179 425.86 363.699C429.64 365.939 431.88 368.459 432.58 371.119C432.86 372.239 432.86 373.359 432.72 374.339C431.04 375.179 429.08 375.599 426.98 375.599C419.7 375.599 413.96 369.719 413.96 362.579C413.82 359.639 414.94 356.839 416.76 354.599Z" fill="white" fill-opacity="0.1"/>
</g>
<g clip-path="url(#clip58_20_110)">
<path fill-rule="evenodd" clip-rule="evenodd" d="M437.2 434.4C439.02 436.64 440 439.44 440 442.52C440 445.6 438.88 448.54 437.06 450.78L436.92 450.92V450.64C436.92 450.5 436.78 450.22 436.78 449.94C435.8 445.88 432.86 442.52 427.96 439.72C424.6 437.9 422.78 435.52 422.22 433C421.94 431.32 422.08 429.64 422.64 428.24C423.06 426.84 423.76 425.58 424.32 424.88L426.28 422.5C426.56 422.08 427.26 422.08 427.54 422.5L437.2 434.4ZM440.28 432.02L427.4 416.48C427.12 416.2 426.7 416.2 426.42 416.48L413.68 432.02C411.3 434.96 409.9 438.74 409.9 442.8C409.9 452.18 417.6 459.88 426.98 459.88C436.36 459.88 444.06 452.32 444.06 442.8C444.06 438.74 442.66 434.96 440.28 432.02ZM416.76 434.4L417.88 433V433.28C417.88 433.42 417.88 433.7 418.02 433.84C418.72 437.76 421.38 440.98 425.86 443.5C429.64 445.74 431.88 448.26 432.58 450.92C432.86 452.04 432.86 453.16 432.72 454.14C431.04 454.98 429.08 455.4 426.98 455.4C419.7 455.4 413.96 449.52 413.96 442.38C413.82 439.44 414.94 436.64 416.76 434.4Z" fill="white" fill-opacity="0.1"/>
</g>
<g clip-path="url(#clip59_20_110)">
<path fill-rule="evenodd" clip-rule="evenodd" d="M376.3 311.199C378.12 313.439 379.1 316.239 379.1 319.319C379.1 322.399 377.98 325.339 376.16 327.579L376.02 327.719V327.439C376.02 327.299 375.88 327.019 375.88 326.739C374.9 322.679 371.96 319.319 367.06 316.519C363.7 314.699 361.88 312.319 361.32 309.799C361.04 308.119 361.18 306.439 361.74 305.039C362.16 303.639 362.86 302.379 363.42 301.679L365.38 299.299C365.66 298.879 366.36 298.879 366.64 299.299L376.3 311.199ZM379.38 308.819L366.5 293.279C366.22 292.999 365.8 292.999 365.52 293.279L352.78 308.819C350.4 311.759 349 315.539 349 319.599C349 328.979 356.7 336.679 366.08 336.679C375.46 336.679 383.16 329.119 383.16 319.599C383.16 315.539 381.76 311.759 379.38 308.819ZM355.86 311.199L356.98 309.799V310.079C356.98 310.219 356.98 310.499 357.12 310.639C357.82 314.559 360.48 317.779 364.96 320.299C368.74 322.539 370.98 325.059 371.68 327.719C371.96 328.839 371.96 329.959 371.82 330.939C370.14 331.779 368.18 332.199 366.08 332.199C358.8 332.199 353.06 326.319 353.06 319.179C352.92 316.239 354.04 313.439 355.86 311.199Z" fill="white" fill-opacity="0.1"/>
</g>
<g clip-path="url(#clip60_20_110)">
<path fill-rule="evenodd" clip-rule="evenodd" d="M375.3 70.8995C377.12 73.1395 378.1 75.9395 378.1 79.0195C378.1 82.0995 376.98 85.0395 375.16 87.2795L375.02 87.4195V87.1395C375.02 86.9995 374.88 86.7195 374.88 86.4395C373.9 82.3795 370.96 79.0195 366.06 76.2195C362.7 74.3995 360.88 72.0195 360.32 69.4995C360.04 67.8195 360.18 66.1395 360.74 64.7395C361.16 63.3395 361.86 62.0795 362.42 61.3795L364.38 58.9995C364.66 58.5795 365.36 58.5795 365.64 58.9995L375.3 70.8995ZM378.38 68.5195L365.5 52.9795C365.22 52.6995 364.8 52.6995 364.52 52.9795L351.78 68.5195C349.4 71.4595 348 75.2395 348 79.2995C348 88.6795 355.7 96.3795 365.08 96.3795C374.46 96.3795 382.16 88.8195 382.16 79.2995C382.16 75.2395 380.76 71.4595 378.38 68.5195ZM354.86 70.8995L355.98 69.4995V69.7795C355.98 69.9195 355.98 70.1995 356.12 70.3395C356.82 74.2595 359.48 77.4795 363.96 79.9995C367.74 82.2395 369.98 84.7595 370.68 87.4195C370.96 88.5395 370.96 89.6595 370.82 90.6395C369.14 91.4795 367.18 91.8995 365.08 91.8995C357.8 91.8995 352.06 86.0195 352.06 78.8795C351.92 75.9395 353.04 73.1395 354.86 70.8995Z" fill="white" fill-opacity="0.1"/>
</g>
<defs>
<clipPath id="clip0_20_110">
<rect width="34.16" height="43.54" fill="white" transform="translate(35 99.8003)"/>
</clipPath>
<clipPath id="clip1_20_110">
<rect width="34.16" height="43.54" fill="white" transform="translate(35 20)"/>
</clipPath>
<clipPath id="clip2_20_110">
<rect width="34.16" height="43.54" fill="white" transform="translate(35 179.6)"/>
</clipPath>
<clipPath id="clip3_20_110">
<rect width="34.16" height="43.54" fill="white" transform="translate(35 259.4)"/>
</clipPath>
<clipPath id="clip4_20_110">
<rect width="34.16" height="43.54" fill="white" transform="translate(98 216)"/>
</clipPath>
<clipPath id="clip5_20_110">
<rect width="34.16" height="43.54" fill="white" transform="translate(98 136.2)"/>
</clipPath>
<clipPath id="clip6_20_110">
<rect width="34.16" height="43.54" fill="white" transform="translate(98 55.7002)"/>
</clipPath>
<clipPath id="clip7_20_110">
<rect width="34.16" height="43.54" fill="white" transform="translate(158.9 99.8003)"/>
</clipPath>
<clipPath id="clip8_20_110">
<rect width="34.16" height="43.54" fill="white" transform="translate(158.9 20)"/>
</clipPath>
<clipPath id="clip9_20_110">
<rect width="34.16" height="43.54" fill="white" transform="translate(158.9 179.6)"/>
</clipPath>
<clipPath id="clip10_20_110">
<rect width="34.16" height="43.54" fill="white" transform="translate(226.1 216)"/>
</clipPath>
<clipPath id="clip11_20_110">
<rect width="34.16" height="43.54" fill="white" transform="translate(158.9 259.4)"/>
</clipPath>
<clipPath id="clip12_20_110">
<rect width="34.16" height="43.54" fill="white" transform="translate(287 99.8003)"/>
</clipPath>
<clipPath id="clip13_20_110">
<rect width="34.16" height="43.54" fill="white" transform="translate(287 20)"/>
</clipPath>
<clipPath id="clip14_20_110">
<rect width="34.16" height="43.54" fill="white" transform="translate(287 179.6)"/>
</clipPath>
<clipPath id="clip15_20_110">
<rect width="34.16" height="43.54" fill="white" transform="translate(287 259.4)"/>
</clipPath>
<clipPath id="clip16_20_110">
<rect width="34.16" height="43.54" fill="white" transform="translate(226.1 136.2)"/>
</clipPath>
<clipPath id="clip17_20_110">
<rect width="34.16" height="43.54" fill="white" transform="translate(226.1 55.7002)"/>
</clipPath>
<clipPath id="clip18_20_110">
<rect width="34.16" height="43.54" fill="white" transform="translate(348 213)"/>
</clipPath>
<clipPath id="clip19_20_110">
<rect width="34.16" height="43.54" fill="white" transform="translate(408.9 96.8003)"/>
</clipPath>
<clipPath id="clip20_20_110">
<rect width="34.16" height="43.54" fill="white" transform="translate(408.9 17)"/>
</clipPath>
<clipPath id="clip21_20_110">
<rect width="34.16" height="43.54" fill="white" transform="translate(408.9 176.6)"/>
</clipPath>
<clipPath id="clip22_20_110">
<rect width="34.16" height="43.54" fill="white" transform="translate(408.9 256.4)"/>
</clipPath>
<clipPath id="clip23_20_110">
<rect width="34.16" height="43.54" fill="white" transform="translate(35 179.6)"/>
</clipPath>
<clipPath id="clip24_20_110">
<rect width="34.16" height="43.54" fill="white" transform="translate(35 259.4)"/>
</clipPath>
<clipPath id="clip25_20_110">
<rect width="34.16" height="43.54" fill="white" transform="translate(98 216)"/>
</clipPath>
<clipPath id="clip26_20_110">
<rect width="34.16" height="43.54" fill="white" transform="translate(158.9 179.6)"/>
</clipPath>
<clipPath id="clip27_20_110">
<rect width="34.16" height="43.54" fill="white" transform="translate(226.1 216)"/>
</clipPath>
<clipPath id="clip28_20_110">
<rect width="34.16" height="43.54" fill="white" transform="translate(158.9 259.4)"/>
</clipPath>
<clipPath id="clip29_20_110">
<rect width="34.16" height="43.54" fill="white" transform="translate(287 179.6)"/>
</clipPath>
<clipPath id="clip30_20_110">
<rect width="34.16" height="43.54" fill="white" transform="translate(287 259.4)"/>
</clipPath>
<clipPath id="clip31_20_110">
<rect width="34.16" height="43.54" fill="white" transform="translate(348 213)"/>
</clipPath>
<clipPath id="clip32_20_110">
<rect width="34.16" height="43.54" fill="white" transform="translate(408.9 176.6)"/>
</clipPath>
<clipPath id="clip33_20_110">
<rect width="34.16" height="43.54" fill="white" transform="translate(408.9 256.4)"/>
</clipPath>
<clipPath id="clip34_20_110">
<rect width="34.16" height="43.54" fill="white" transform="translate(348 133.2)"/>
</clipPath>
<clipPath id="clip35_20_110">
<rect width="34.16" height="43.54" fill="white" transform="translate(36 339.4)"/>
</clipPath>
<clipPath id="clip36_20_110">
<rect width="34.16" height="43.54" fill="white" transform="translate(36 419.2)"/>
</clipPath>
<clipPath id="clip37_20_110">
<rect width="34.16" height="43.54" fill="white" transform="translate(99 375.8)"/>
</clipPath>
<clipPath id="clip38_20_110">
<rect width="34.16" height="43.54" fill="white" transform="translate(99 296)"/>
</clipPath>
<clipPath id="clip39_20_110">
<rect width="34.16" height="43.54" fill="white" transform="translate(159.9 339.4)"/>
</clipPath>
<clipPath id="clip40_20_110">
<rect width="34.16" height="43.54" fill="white" transform="translate(227.1 375.8)"/>
</clipPath>
<clipPath id="clip41_20_110">
<rect width="34.16" height="43.54" fill="white" transform="translate(159.9 419.2)"/>
</clipPath>
<clipPath id="clip42_20_110">
<rect width="34.16" height="43.54" fill="white" transform="translate(288 339.4)"/>
</clipPath>
<clipPath id="clip43_20_110">
<rect width="34.16" height="43.54" fill="white" transform="translate(288 419.2)"/>
</clipPath>
<clipPath id="clip44_20_110">
<rect width="34.16" height="43.54" fill="white" transform="translate(227.1 296)"/>
</clipPath>
<clipPath id="clip45_20_110">
<rect width="34.16" height="43.54" fill="white" transform="translate(349 372.8)"/>
</clipPath>
<clipPath id="clip46_20_110">
<rect width="34.16" height="43.54" fill="white" transform="translate(409.9 336.4)"/>
</clipPath>
<clipPath id="clip47_20_110">
<rect width="34.16" height="43.54" fill="white" transform="translate(409.9 416.2)"/>
</clipPath>
<clipPath id="clip48_20_110">
<rect width="34.16" height="43.54" fill="white" transform="translate(36 339.4)"/>
</clipPath>
<clipPath id="clip49_20_110">
<rect width="34.16" height="43.54" fill="white" transform="translate(36 419.2)"/>
</clipPath>
<clipPath id="clip50_20_110">
<rect width="34.16" height="43.54" fill="white" transform="translate(99 375.8)"/>
</clipPath>
<clipPath id="clip51_20_110">
<rect width="34.16" height="43.54" fill="white" transform="translate(159.9 339.4)"/>
</clipPath>
<clipPath id="clip52_20_110">
<rect width="34.16" height="43.54" fill="white" transform="translate(227.1 375.8)"/>
</clipPath>
<clipPath id="clip53_20_110">
<rect width="34.16" height="43.54" fill="white" transform="translate(159.9 419.2)"/>
</clipPath>
<clipPath id="clip54_20_110">
<rect width="34.16" height="43.54" fill="white" transform="translate(288 339.4)"/>
</clipPath>
<clipPath id="clip55_20_110">
<rect width="34.16" height="43.54" fill="white" transform="translate(288 419.2)"/>
</clipPath>
<clipPath id="clip56_20_110">
<rect width="34.16" height="43.54" fill="white" transform="translate(349 372.8)"/>
</clipPath>
<clipPath id="clip57_20_110">
<rect width="34.16" height="43.54" fill="white" transform="translate(409.9 336.4)"/>
</clipPath>
<clipPath id="clip58_20_110">
<rect width="34.16" height="43.54" fill="white" transform="translate(409.9 416.2)"/>
</clipPath>
<clipPath id="clip59_20_110">
<rect width="34.16" height="43.54" fill="white" transform="translate(349 293)"/>
</clipPath>
<clipPath id="clip60_20_110">
<rect width="34.16" height="43.54" fill="white" transform="translate(348 52.7002)"/>
</clipPath>
</defs>
</svg>
